<svg width="128" height="136" viewBox="0 0 128 136" fill="none" xmlns="http://www.w3.org/2000/svg">
<path d="M111.333 30.663C111.247 31.1273 110.997 31.419 110.664 31.6696C110.286 31.9203 109.994 32.0476 109.657 32.1709C108.987 32.4256 108.231 32.6763 107.475 32.9269C106.719 33.2227 105.963 33.4733 105.293 33.6829C104.496 33.9746 103.699 34.2293 103.029 34.48C102.482 34.7306 101.981 35.0264 101.476 35.4003C101.056 35.7783 100.719 36.1974 100.387 36.789C100.05 37.3314 99.8812 38.0463 99.8812 38.8845C99.8812 40.5608 100.3 41.8222 101.102 42.6603C101.899 43.4574 103.407 43.9176 105.589 43.9176C107.771 43.9176 109.324 43.4533 110.162 42.6151C110.96 41.7359 111.379 40.5197 111.379 38.9255L111.338 30.6589L111.333 30.663ZM105.63 12.9587C109.53 12.9587 112.427 13.7147 114.272 15.2678C116.075 16.8209 117 18.752 117 21.0569V40.7744C117 41.5715 116.832 42.4508 116.536 43.4163C116.244 44.3819 115.697 45.2611 114.859 46.0623C114.021 46.8594 112.846 47.5291 111.375 48.0755C109.908 48.622 107.976 48.8726 105.626 48.8726C103.275 48.8726 101.344 48.5768 99.8771 48.0755C98.4102 47.5702 97.2349 46.8594 96.3967 46.0623C95.5584 45.2652 94.9708 44.3819 94.716 43.4163C94.4243 42.4508 94.2558 41.5715 94.2558 40.7744V37.6272C94.2558 35.9468 94.716 34.3978 95.5543 33.0132C96.4377 31.6285 97.6541 30.6219 99.2484 30.0755C100.046 29.7796 100.925 29.529 101.973 29.151C102.98 28.773 103.986 28.4813 104.952 28.1033C105.918 27.7664 106.715 27.4747 107.467 27.224C108.182 26.9282 108.642 26.805 108.81 26.7228C108.975 26.6365 109.23 26.5132 109.48 26.3448C109.772 26.1804 110.027 25.9257 110.319 25.6751C110.61 25.3382 110.82 25.0054 110.988 24.6274C111.198 24.2083 111.284 23.7481 111.284 23.2017V21.9444C111.284 21.4842 111.198 21.0652 110.988 20.5598C110.82 20.0544 110.483 19.6805 110.064 19.2614C109.604 18.8424 109.016 18.5506 108.301 18.2959C107.586 18.0453 106.665 17.9179 105.531 17.9179C103.308 17.9179 101.841 18.3781 100.999 19.3025C100.329 20.0996 99.91 21.0652 99.8237 22.195C99.8237 22.4498 99.6141 22.6141 99.3635 22.6141H94.5393C94.2886 22.6141 94.0791 22.4046 94.0791 22.1539V20.9789C94.0791 19.849 94.2887 18.7972 94.7078 17.8316C95.1269 16.8661 95.7967 15.9868 96.7665 15.2308C97.6869 14.5159 98.8622 13.8873 100.333 13.5093C101.886 13.2135 103.604 12.9629 105.618 12.9629M28.1804 30.663C28.0941 31.1273 27.8435 31.419 27.5065 31.6696C27.1285 31.9203 26.8367 32.0476 26.4998 32.1709C25.83 32.4256 25.0739 32.6763 24.3178 32.9269C23.5617 33.2227 22.8056 33.4733 22.1358 33.6829C21.3387 33.9746 20.5415 34.2293 19.8717 34.48C19.3252 34.7306 18.8238 35.0264 18.3184 35.4003C17.8993 35.7783 17.5623 36.1974 17.2295 36.789C16.8925 37.3766 16.7241 38.0463 16.7241 38.8845C16.7241 40.5608 17.1432 41.8222 17.9404 42.6603C18.7376 43.4574 20.2497 43.9176 22.4317 43.9176C24.6137 43.9176 26.1669 43.4533 27.0052 42.6151C27.8024 41.7359 28.2215 40.5197 28.2215 38.9255L28.1804 30.6589V30.663ZM22.4276 12.9587C26.3272 12.9587 29.2241 13.7147 31.0692 15.2678C32.8731 16.8209 33.7976 18.752 33.7976 21.0569V40.7744C33.7976 41.5715 33.6292 42.4508 33.3333 43.4163C33.0416 44.3819 32.495 45.2611 31.6568 46.0623C30.8185 46.8594 29.6433 47.5291 28.1763 48.0755C26.7052 48.622 24.778 48.8726 22.4276 48.8726C20.0771 48.8726 18.1458 48.5768 16.6789 48.0755C15.2078 47.5702 14.0326 46.8594 13.1943 46.0623C12.356 45.2652 11.7684 44.3819 11.5136 43.4163C11.2219 42.4508 11.0534 41.5715 11.0534 40.7744V37.6272C11.0534 35.9468 11.5136 34.3978 12.3519 33.0132C13.2354 31.6285 14.4517 30.6219 16.0461 30.0755C16.8432 29.7796 17.7226 29.529 18.7704 29.151C19.7772 28.773 20.7839 28.4813 21.7496 28.1033C22.7152 27.7664 23.5124 27.4747 24.2644 27.224C24.9794 26.9282 25.4396 26.805 25.6081 26.7228C25.7724 26.6365 26.0272 26.5132 26.2779 26.3448C26.5737 26.1804 26.8244 25.9257 27.1161 25.6751C27.4079 25.3382 27.6175 25.0054 27.7859 24.6274C27.9955 24.2083 28.0818 23.7481 28.0818 23.2017V21.9444C28.0818 21.4842 27.9955 21.0652 27.7859 20.5598C27.6175 20.0544 27.2805 19.6805 26.8614 19.2614C26.4012 18.8424 25.8135 18.5506 25.0985 18.2959C24.3835 18.0453 23.4631 17.9179 22.329 17.9179C20.1059 17.9179 18.6389 18.3781 17.7966 19.3025C17.1268 20.0996 16.7076 21.0652 16.6213 22.195C16.6213 22.4498 16.4118 22.6141 16.1611 22.6141H11.4602C11.2096 22.6141 11 22.4046 11 22.1539V20.9789C11 19.849 11.2096 18.7972 11.6287 17.8316C12.0478 16.8661 12.7176 15.9868 13.6833 15.2308C14.6078 14.5159 15.779 13.8873 17.25 13.5093C18.6759 13.2135 20.3977 12.9629 22.4112 12.9629M88.4249 12.9587H91.6547C91.9505 12.9587 92.156 13.2546 92.0738 13.5052L90.9849 17.7002C90.9397 17.9097 90.7301 18.0371 90.5658 18.0371H88.3016C87.0812 18.0371 86.1196 18.2014 85.3636 18.5424C84.6527 18.8752 84.024 19.2121 83.6418 19.6723C83.2227 20.1366 83.0131 20.5516 82.8857 21.0117C82.7583 21.5171 82.7214 21.9362 82.7214 22.3553V48.5357C82.7214 48.7864 82.5118 48.9959 82.257 48.9959H77.4329C77.1781 48.9959 76.9685 48.7864 76.9685 48.5357V21.1843C76.9685 20.683 77.0548 19.9681 77.2644 19.0437C77.4329 18.1233 77.8931 17.24 78.6903 16.3196C79.4464 15.4404 80.5805 14.6392 82.1296 13.9695C83.6007 13.2998 85.7375 12.9629 88.4249 12.9629M72.0622 39.5583V40.7786C72.0622 41.325 71.9759 42.0358 71.7663 42.9603C71.5979 43.8395 71.1376 44.764 70.3404 45.6432C69.5844 46.5225 68.4502 47.3196 66.9011 47.9893C65.3478 48.6179 63.2521 48.9548 60.5647 48.9548C57.8773 48.9548 55.7817 48.6179 54.2284 47.9893C52.6751 47.3606 51.5821 46.5636 50.789 45.6432C50.033 44.7599 49.5316 43.8395 49.3632 42.9151C49.1947 41.9947 49.0673 41.325 49.0673 40.7786V13.386C49.0673 13.1313 49.2769 12.9218 49.5275 12.9218H54.3106C54.5613 12.9218 54.7708 13.1313 54.7708 13.386V39.0159C54.7708 39.8541 54.8982 40.4868 55.0215 40.947C55.1489 41.4072 55.3995 41.9125 55.7365 42.3316C56.1145 42.7918 56.6569 43.1287 57.413 43.4204C58.128 43.7162 59.1348 43.8806 60.3922 43.8806C61.6496 43.8806 62.7426 43.7162 63.4987 43.4204C64.2548 43.1246 64.8424 42.7918 65.2204 42.3727C65.6396 41.9536 65.8902 41.5345 66.0176 41.0333C66.145 40.5279 66.3135 40.154 66.3135 38.979V13.3902C66.3135 13.1354 66.523 12.9259 66.7737 12.9259H71.5568C71.8074 12.9259 72.017 13.1354 72.017 13.3902L72.0622 39.5665V39.5583ZM39.0861 0H43.8692C44.124 0 44.3335 0.20954 44.3335 0.460169V48.5398C44.3335 48.7905 44.124 49 43.8692 49H39.0861C38.8355 49 38.6259 48.7905 38.6259 48.5398V0.460169C38.6259 0.20954 38.8355 0 39.0861 0Z" fill="white"/>
<path d="M45.0423 135.976L47.8327 135.964C49.9245 132.67 65.8578 106.251 66.9936 105.114L77.3339 121.178L80.0303 121.282L68.2274 102.029L65.8537 102.053L45.0382 135.976H45.0423ZM2.22658 135.976L2.26335 104.592L28.3818 104.616L28.394 102.56L0 102.652L0.0449404 135.98H2.23067L2.22658 135.976ZM38.4484 102.282L36.52 102.27L36.3689 135.988H38.624L38.4484 102.282ZM9.23725 120.997L21.6203 121.021L21.5958 118.711L9.28219 118.643L9.23725 120.997ZM86.5344 135.976L89.0224 136L84.1607 127.665L81.452 127.653L86.5344 135.976ZM94.9995 135.988H97.4671L97.4916 104.66C101.491 104.202 110.177 104.476 114.667 104.488C120.75 104.488 125.608 106.854 125.424 113.052C125.122 122.929 113.016 120.977 106.819 121.355L106.774 123.491C115.227 124.476 127.495 123.504 127.981 113.349C128.623 99.9366 112.469 102.134 102.995 102.134L94.9954 102.17L95.0076 135.988H94.9995Z" fill="white"/>
<path d="M58.6016 75.2959H69.3862" stroke="white" stroke-width="1.52" stroke-linecap="round" stroke-linejoin="round"/>
<path d="M63.9941 69.9033V80.688" stroke="white" stroke-width="1.52" stroke-linecap="round" stroke-linejoin="round"/>
</svg>
