<svg width="490" height="141" viewBox="0 0 490 141" fill="none" xmlns="http://www.w3.org/2000/svg">
<g clip-path="url(#clip0_1520_1810)">
<path d="M70.402 0C31.602 0 0 31.6146 0 70.4301C0 109.385 31.602 141 70.402 141C109.202 141 140.944 109.385 140.944 70.4301C140.951 31.6146 109.202 0 70.402 0ZM118.516 103.741C103.139 105.438 86.4867 105.859 70.402 105.859C54.317 105.859 37.6715 105.438 22.1473 103.741C17.7739 103.321 15.5171 102.192 14.9495 97.529C14.1014 88.6383 14.1014 79.6011 14.1014 70.4301C14.1014 61.3989 14.1014 52.3614 14.9495 43.4709C15.5171 38.8153 17.7739 37.6865 22.1473 37.2588C37.6644 35.562 54.317 35.1413 70.402 35.1413C86.4867 35.1413 103.132 35.562 118.516 37.2588C123.03 37.6794 125.286 38.8083 125.854 43.4709C126.562 52.3614 126.562 61.3989 126.562 70.4301C126.562 79.6011 126.562 88.6383 125.854 97.529C125.294 102.185 123.03 103.313 118.516 103.741Z" fill="white"/>
<path d="M41.9043 70.43C41.9043 54.9065 54.3236 41.9214 70.4016 41.9214C86.4863 41.9214 98.8987 54.9065 98.8987 70.43C98.8987 86.1003 86.4863 99.0855 70.4016 99.0855C54.3166 99.0855 41.9043 86.1003 41.9043 70.43Z" fill="white"/>
<path d="M454.615 88.1546C445.146 88.1546 437.451 80.4563 437.451 69.9529C437.451 59.4495 445.146 51.7513 454.615 51.7513C464.084 51.7513 471.779 59.4495 471.779 69.9529C471.779 80.4563 464.084 88.1546 454.615 88.1546ZM377.387 88.1546C368.212 88.1546 360.524 80.9047 360.524 69.9529C360.524 59.0012 368.219 51.7513 377.387 51.7513C386.554 51.7513 394.249 59.1483 394.249 69.9529C394.249 80.7576 386.554 88.1546 377.387 88.1546ZM299.422 88.1546C289.954 88.1546 282.258 80.4563 282.258 69.9529C282.258 59.4495 289.954 51.7513 299.422 51.7513C308.891 51.7513 316.587 59.4495 316.587 69.9529C316.587 80.4563 308.891 88.1546 299.422 88.1546ZM194.089 88.0076C184.768 88.0076 176.926 80.6106 176.926 69.8059C176.926 59.0012 184.768 51.604 194.089 51.604C203.411 51.604 211.099 58.8536 211.099 69.8059C211.099 80.7576 203.404 88.0076 194.089 88.0076ZM454.615 34.433C435.53 34.433 419.55 49.3814 419.55 69.9529C419.55 90.5246 435.229 105.473 454.615 105.473C474.001 105.473 489.679 90.5246 489.679 69.9529C489.679 49.3814 474.001 34.433 454.615 34.433ZM299.422 34.433C280.338 34.433 264.358 49.3814 264.358 69.9529C264.358 90.5246 280.036 105.473 299.422 105.473C318.809 105.473 334.487 90.5246 334.487 69.9529C334.487 49.3814 318.809 34.433 299.422 34.433ZM215.242 35.618C213.02 35.618 211.688 36.9501 211.688 39.1728V43.022C207.693 38.135 200.299 34.44 192.898 34.44C174.851 34.44 159.312 49.8301 159.312 69.9601C159.312 90.0901 173.961 104.001 192.45 104.001C200.733 104.001 207.097 100.151 210.791 96.1547C210.644 110.213 203.243 116.579 190.522 116.579C183.717 116.579 177.353 114.503 169.959 109.771C168.038 108.439 165.817 108.881 164.78 110.956L160.343 119.685C159.306 121.761 159.6 123.682 161.674 125.014C170.849 130.932 181.649 133.89 190.964 133.89C215.375 133.89 228.839 120.716 228.839 90.377V39.1658C228.839 36.9431 227.507 35.6109 225.285 35.6109H215.228L215.242 35.618ZM379.454 34.433C372.355 34.433 365.402 37.5391 360.811 42.2788V10.9026C360.811 8.68002 359.48 7.34784 357.258 7.34784H346.31C344.089 7.34784 342.757 8.68002 342.757 10.9026V100.74C342.757 102.963 344.089 104.295 346.31 104.295H356.22C358.442 104.295 359.774 102.963 359.774 100.74V96.8911C364.063 101.778 372.053 105.473 379.896 105.473C397.207 105.473 412.149 89.7882 412.149 69.9529C412.149 50.1176 397.06 34.433 379.454 34.433ZM245.281 6.75889C240.991 4.83774 238.033 6.75889 238.033 11.4916V100.144C238.033 104.877 240.991 106.805 245.281 104.877L250.902 102.36C254.455 100.733 256.081 98.3633 256.081 94.5139V17.1147C256.081 13.2655 254.455 10.8956 250.902 9.26897L245.281 6.75184V6.75889Z" fill="white"/>
</g>
<defs>
<clipPath id="clip0_1520_1810">
<rect width="490" height="141" fill="white"/>
</clipPath>
</defs>
</svg>
