<svg width="391" height="136" viewBox="0 0 391 136" fill="none" xmlns="http://www.w3.org/2000/svg">
<path d="M31.6594 0.0433385C34.4834 0.0272865 37.1145 -0.18781 39.8689 0.515267C45.7414 1.73522 51.247 4.39664 55.5636 8.66325C56.4617 9.59748 57.9101 10.7147 58.1663 12.0406C57.8057 12.9074 56.7464 13.4981 56.0348 14.0599C53.935 15.4693 52.1167 17.2286 49.9599 18.5352C49.1188 17.7776 48.3566 16.9461 47.6008 16.0985C45.5485 13.8031 42.7308 12.1754 39.8531 11.1995C37.4845 10.368 35.0969 10.6248 32.5986 10.5863C28.8481 10.4386 25.009 12.3038 22.0838 14.564C17.7387 17.9252 14.9211 23.2545 14.3929 28.7539C14.1589 32.1216 14.6301 35.4636 16.05 38.5296C18.0802 43.3066 21.9921 47.1495 26.7166 49.1399C29.6292 50.2764 32.9813 51.0052 36.0993 50.5365C40.7037 50.1191 45.131 48.1768 48.2871 44.6903C51.0699 42.1381 52.2432 38.8602 53.4101 35.3481C51.7182 34.8472 50.1465 35.072 48.4104 35.0335C43.6194 35.011 38.8253 35.0912 34.0343 34.9949C33.9142 31.6144 33.9901 28.221 33.9901 24.8372C35.742 24.6928 37.4813 24.7538 39.2396 24.7473C46.3011 24.7377 53.3626 24.757 60.4273 24.7441C61.9389 24.7313 63.4505 24.7217 64.9622 24.8019C64.9716 28.0476 65.0728 31.3222 64.8989 34.5615C63.7162 43.1814 58.688 51.2556 51.4968 56.007C48.0056 58.2221 44.0621 59.8177 39.9796 60.4437C32.5132 61.8948 24.6643 60.4566 18.0391 56.7165C12.2963 53.246 7.52115 47.8975 5.12408 41.5217C4.05837 38.8731 3.63145 36.1764 3.2077 33.3737C2.75548 30.51 3.11599 27.7876 3.58086 24.9624C4.88375 17.7294 8.77977 11.0389 14.6238 6.65033C19.516 2.71439 25.4865 0.640472 31.6594 0.0433385Z" fill="white"/>
<path d="M198.887 0.0103683C198.138 0.0119736 197.388 0.0270638 196.644 0.0912636C191.921 0.84897 187.351 2.31939 183.273 4.84937C176.788 8.85302 171.797 15.4156 169.96 22.8194C169.441 24.9512 168.938 27.1987 169.006 29.398C169.025 31.3019 168.9 33.0933 169.312 34.9683C170.041 40.0732 172.155 44.9407 175.317 49.0117C179.208 53.9625 184.63 57.6162 190.658 59.4591C193.559 60.2939 196.489 60.9265 199.522 60.9811C206.111 61.2122 212.722 59.3178 218.276 55.8053C220.429 54.4537 222.292 52.7617 224.046 50.9348C226.412 48.575 228.156 45.583 229.561 42.5746C230.812 39.8809 231.408 37.065 231.895 34.1561C232.004 33.2218 231.988 32.2652 231.995 31.3277C231.982 29.2344 232.11 27.2146 231.591 25.1662C229.967 15.4316 223.192 6.8947 214.144 2.92957C210.111 1.17978 205.563 -0.136378 201.134 0.0113113C200.387 0.0209432 199.637 0.00876295 198.887 0.0103683ZM200.725 10.2626C202.546 10.2806 204.37 10.5502 206.088 11.1261C210.81 12.6897 215.117 15.6984 217.602 20.0681C220.99 25.372 221.506 32.2297 219.108 38.0249C216 45.6309 207.842 51.1373 199.522 50.6268C194.548 50.3442 189.733 48.1031 186.3 44.5104C183.337 41.547 181.342 37.6556 180.691 33.5236C180.546 31.7449 180.584 29.9341 180.636 28.1522C181 24.4856 182.499 21.0887 184.74 18.1831C187.699 14.1088 192.585 11.4667 197.472 10.4907C198.54 10.3318 199.632 10.2518 200.725 10.2626Z" fill="white"/>
<path d="M283.138 0.0374015C285.801 0.0245603 288.284 -0.161635 290.885 0.435481C296.104 1.27016 301.079 3.66504 305.156 7.00376C306.94 8.53186 308.765 10.0728 310 12.0664C308.611 13.3826 307.033 14.426 305.516 15.5817C304.053 16.6475 302.898 17.8449 301.179 18.5191C299.591 16.686 298.16 14.8626 296.072 13.5592C291.155 10.1659 284.681 9.34728 279.058 11.3345C276.136 12.4324 273.422 13.9894 271.244 16.2526C267.59 19.9541 265.239 25.1227 265.329 30.3683C265.242 34.8082 266.814 39.1967 269.509 42.7023C271.789 45.7104 275.026 47.9993 278.516 49.3926C285.842 52.2626 294.888 50.0699 300.088 44.1598C300.544 43.7168 301.06 43.0779 301.695 42.9174C302.754 43.2737 303.681 44.1502 304.582 44.7954C306.43 46.2433 308.399 47.1999 309.997 48.9528C309.484 49.7136 308.97 50.4616 308.329 51.1197C305.397 54.2016 301.827 56.7345 297.916 58.4135C295.437 59.5179 292.64 60.1214 289.977 60.635C282.965 61.749 275.661 60.2594 269.445 56.895C265.04 54.4392 261.265 50.8051 258.529 46.5739C256.264 43.0651 254.888 38.882 254.124 34.7953C253.925 32.5802 254.028 30.3266 254.015 28.1051C253.97 26.166 254.557 24.1532 255.032 22.2784C256.601 16.5448 259.959 11.3987 264.463 7.53988C266.962 5.39861 269.823 3.54305 272.931 2.43229C276.184 1.08075 279.636 0.33917 283.138 0.0374015Z" fill="white"/>
<path d="M91.2927 1.0959C94.7836 0.921879 98.3224 1.03467 101.823 1.05078C102.171 3.03915 102.155 5.04041 101.963 7.04166C101.762 8.77867 102.197 10.4609 102.021 12.1979C101.689 14.6858 102.258 17.1124 102.056 19.6099C101.9 21.4436 101.797 23.2547 102.018 25.0884C102.258 27.1509 101.746 29.1586 101.983 31.2114C102.216 33.2127 101.915 35.2848 102.27 37.2571C103.092 40.7633 104.588 44.3437 107.308 46.78C109.693 48.9198 112.839 50.3507 116.029 50.631C121.326 50.9082 126.661 48.3075 129.391 43.6508C131.194 40.5281 132.224 36.764 132.128 33.145C132.157 22.4491 132.07 11.7499 132.173 1.05723C135.689 0.992776 139.225 0.999222 142.741 1.04756C142.859 1.96924 142.997 2.88124 143 3.81258C142.981 10.5833 142.997 17.3509 142.994 24.1216C142.984 25.8683 143.051 27.5409 142.891 29.2779C142.674 31.2275 143.141 33.1257 142.936 35.0786C142.773 36.5642 142.84 38.0563 142.712 39.542C141.824 45.2815 139.039 50.6794 134.717 54.5498C131.351 57.4179 127.214 59.5706 122.864 60.3666C117.193 61.6299 111.109 60.9757 105.79 58.6522C101.327 56.7025 97.5423 53.3703 94.9306 49.2453C92.5075 45.1397 91.1009 40.512 91.0114 35.7231C91.021 25.6266 91.0306 15.5269 91.005 5.43035C91.0146 3.98338 90.9155 2.49775 91.2927 1.0959Z" fill="white"/>
<path d="M367.729 1.00021C357.856 1.02568 347.986 0.974753 338.113 1.01933C337.93 3.108 338.028 5.17116 338.012 7.26301V52.7938C338.015 54.8507 337.968 56.9009 338.068 58.9578C349 59.0342 359.935 58.9673 370.867 58.9927C374.024 59.0819 377.177 58.3495 379.97 56.8594C382.756 55.2834 385.288 52.9273 386.51 49.8835C387.258 48.0241 388.002 45.9194 387.987 43.8912C387.955 41.3631 388.223 39.0519 387.305 36.648C386.171 33.7029 383.997 31.0983 381.268 29.5541C380.423 29.0606 379.587 28.5542 378.776 28.0066C379.876 27.01 381.045 26.0579 382.062 24.9722C383.174 23.7878 383.875 22.2757 384.381 20.741C384.965 18.993 384.855 17.0505 384.839 15.2165C384.799 11.5422 383.168 8.18668 380.74 5.53127C378.425 3.16241 375.082 1.93624 371.922 1.27398C370.508 0.939667 369.167 1.00976 367.729 1.00021ZM365.53 10.9979C367.396 10.9852 369.532 11.106 371.181 12.0739C372.33 12.7139 373.103 13.8128 373.681 14.9749C374.341 16.2772 374.272 17.9804 374.083 19.3941C373.706 21.6769 371.837 23.2467 369.733 23.8803C367.996 24.5012 366.384 24.2783 364.584 24.3006C359.212 24.256 353.832 24.3769 348.46 24.2432C348.366 21.9762 348.426 19.7221 348.413 17.452C348.441 15.2964 348.34 13.1822 348.488 11.0362C354.167 10.9661 359.85 11.0425 365.53 10.9979ZM350.109 34.483C355.977 34.4957 361.858 34.4923 367.725 34.4923C369.623 34.5146 371.31 34.3046 373.078 35.177C375.236 36.215 377.385 38.4116 377.347 40.9874C377.382 42.5698 377.41 44.0568 376.398 45.3622C374.897 47.2662 372.416 48.8903 369.94 48.7884C364.49 48.7979 359.04 48.7916 353.59 48.7884C351.827 48.7629 350.166 48.9474 348.432 48.5048C348.375 44.7287 348.435 40.9493 348.407 37.1732C348.413 36.4345 348.375 35.6511 348.523 34.9251C348.963 34.403 349.503 34.5339 350.109 34.483Z" fill="white"/>
<path d="M81.2976 71C81.0992 73.0795 81.3402 75.1591 81.069 77.2387C79.8024 76.7455 78.5991 76.2932 77.1936 76.4251C75.5005 76.4471 74.0419 77.4805 73.3342 78.9035C72.9672 79.8301 73.0265 80.9456 73 81.9225C73.0165 82.9497 72.967 84.0394 73.2117 85.0446C73.678 86.5587 75.1662 87.7588 76.8197 87.9315C78.1788 88.0635 79.6638 88.0761 80.8311 87.3002C82.4119 86.3578 83.0499 84.5862 82.997 82.8805C82.9507 78.9382 83.0602 74.9897 82.9379 71.0474C82.3922 71.0285 81.8466 71.0063 81.2976 71ZM78.1852 77.8773C79.0311 77.9097 79.762 78.1613 80.4242 78.828C81.4229 79.6793 81.1884 81.0898 81.2347 82.2395C81.1652 83.3798 81.2744 84.7242 80.3782 85.6069C79.0323 87.011 76.4392 86.8037 75.3083 85.2613C74.3062 83.942 74.3594 81.9508 74.6306 80.421C74.9282 79.3122 76.0161 77.9895 77.2992 77.9109C77.6084 77.8803 77.9033 77.8665 78.1852 77.8773Z" fill="white"/>
<path d="M245.103 71.0287C245.584 70.9847 246.06 71.0004 246.538 71.0161C246.661 75.905 246.532 80.8034 246.606 85.6986C247.064 86.1356 247.533 86.5506 248 86.9751C247.985 87.3177 247.971 87.6573 247.956 88C247.36 87.9497 246.553 88.0346 246.036 87.6699C245.294 87.0285 244.965 86.0884 245.003 85.0792C245 81.3033 245.024 77.5242 245 73.7483C245.003 72.8522 244.982 71.9185 245.103 71.0287Z" fill="white"/>
<path d="M284.087 71C284.518 71.0219 284.951 71.0438 285.382 71.0688C285.638 73.0234 285.534 74.9592 285.547 76.92C285.557 79.894 285.524 82.8681 285.579 85.839C286.052 86.1955 286.518 86.5614 287 86.9023C286.981 87.2682 286.955 87.6341 286.926 88C286.197 87.9031 285.175 88.0031 284.654 87.4183C283.822 86.8554 284.074 85.6076 284.003 84.7445C284.065 80.1661 283.913 75.5752 284.087 71Z" fill="white"/>
<path d="M321.51 71C321.343 73.2294 321.468 75.4681 321.409 77.7069C320.544 77.2311 319.628 76.6216 318.616 76.5532C317.605 76.4816 316.467 76.5159 315.524 76.9139C314.135 77.486 313.361 79.1869 313.116 80.5208C312.914 82.5948 312.813 84.7403 314.242 86.4598C315.54 88.0051 318.036 88.257 319.925 87.7875C321.791 87.3211 322.916 85.6479 322.968 83.8631C323.03 81.6834 322.971 79.4948 322.991 77.312C322.958 75.2753 323.082 73.2105 322.886 71.1863C322.426 71.1241 321.97 71.0622 321.51 71ZM317.994 77.9774C318.501 77.9693 319.008 78.024 319.393 78.1546C320.097 78.5588 321.105 79.2179 321.099 80.0886C321.203 81.3416 321.171 82.6164 321.105 83.8695C321.034 84.4851 321.004 85.1817 320.473 85.6108C319.011 87.0628 316.14 86.8422 315.223 84.9362C314.695 83.6427 314.803 82.0662 314.904 80.7012C314.995 79.5725 315.583 78.745 316.591 78.176C316.979 78.0563 317.487 77.9856 317.994 77.9774Z" fill="white"/>
<path d="M382.111 71C382.651 71.0561 383.191 71.1121 383.731 71.1713C384.052 73.4108 383.821 75.7001 383.884 77.952C383.938 80.587 383.766 83.2501 383.97 85.8789C384.439 86.3461 385.249 86.6264 385.883 86.9348C385.922 87.2244 385.961 87.5172 386 87.8069C385.401 87.8848 384.783 87.9875 384.181 88C383.16 87.8131 382.19 87.2649 382.119 86.3648C381.896 84.5115 382.064 82.6178 382.014 80.7552C382.06 77.5066 381.908 74.2455 382.111 71Z" fill="white"/>
<path d="M11.5563 71.0927C13.1044 70.9545 15.0472 70.8453 16.4253 71.7386C17.5302 72.4263 18.535 73.0915 18.4622 74.6339C18.1009 74.6146 17.7458 74.5857 17.3876 74.5439C16.3767 73.8723 15.548 72.8665 14.2792 72.6127C13.0103 72.4938 11.7779 72.4552 10.6214 73.1011C8.78789 74.0426 7.86205 76.1346 7.82866 78.2265C7.79527 80.7362 7.57671 83.1366 9.44053 85.0326C10.8581 86.4818 12.5398 86.1187 14.3429 86.1251C15.5511 86.1026 16.7289 85.5114 17.3936 84.4252C17.676 83.3777 17.4817 82.118 17.4483 81.0351C15.9153 80.9933 14.4127 81.0704 12.8859 80.8744C12.8919 80.4663 12.901 80.055 12.9162 79.6469C14.8893 79.3609 16.9171 79.3705 18.8962 79.6051C18.9873 81.2857 19.0541 82.992 18.9387 84.6727C18.9053 85.2704 18.4591 85.7042 18.0736 86.0898C17.1265 86.9767 15.9093 87.7479 14.6313 87.899C12.3698 88.1689 9.98086 87.9761 8.17774 86.3501C6.97263 85.0679 6.2866 83.1816 6.07411 81.4078C5.97091 79.4026 5.85859 77.285 6.61444 75.4019C7.36725 73.1204 9.23108 71.3048 11.5563 71.0927Z" fill="white"/>
<path d="M105.798 71C106.133 72.7388 105.987 74.4093 106.003 76.1677C106.013 78.4568 105.987 80.7459 106.013 83.0351C105.914 84.4352 107.044 85.982 108.532 86.0634C109.801 86.1448 111.229 86.249 112.458 85.8875C113.771 85.3079 114.218 83.6635 114.321 82.3773C114.397 78.6001 114.188 74.7968 114.427 71.026C114.92 71.0358 115.414 71.0456 115.908 71.0554C116.087 74.38 115.941 77.7209 115.991 81.052C115.954 82.628 116.203 84.2301 115.311 85.6303C114.304 87.3952 112.17 88.0399 110.222 87.9976C108.383 88.0334 106.504 87.685 105.271 86.2294C104.075 84.6208 103.939 82.6508 104.018 80.7264C104.111 77.5516 103.866 74.3376 104.151 71.1758C104.698 71.0944 105.248 71.0456 105.798 71Z" fill="white"/>
<path d="M147.971 71C148.002 71.4706 148.008 71.9379 147.991 72.4052C147.471 73.3268 146.735 74.1699 145.984 74.8497C145.659 74.9183 145.331 74.9673 145 75C145.454 73.3072 146.624 71.8399 147.971 71Z" fill="white"/>
<path d="M203.727 71.0001C202.662 71.0045 201.612 71.1392 200.717 71.3137C199.024 71.8336 197.591 73.0472 196.83 74.6616C195.923 76.4911 195.961 78.8403 196.034 80.8399C196.06 83.1155 197.139 85.4905 198.998 86.8193C200.835 88.0935 203.261 88.1417 205.391 87.8592C207.384 87.5768 209.04 86.2702 210.02 84.5339C211.163 82.5664 211.055 79.8065 210.915 77.6015C210.826 75.6437 210.011 73.7691 208.524 72.4853C207.318 71.3479 205.502 70.9928 203.727 71.0001ZM203.67 72.553C205.288 72.5604 206.779 73.0125 207.897 74.4303C209.498 76.3689 209.018 78.8051 209.056 81.1577C209.075 82.9486 208.225 84.714 206.668 85.6223C205.71 86.2128 204.541 86.1359 203.459 86.1615C202.501 86.1391 201.325 86.187 200.475 85.6928C198.74 84.6561 197.839 82.509 197.887 80.5287C197.897 78.7345 197.715 76.9725 198.588 75.3452C199.24 73.9138 200.552 73.0696 202.02 72.6748C202.578 72.5978 203.131 72.5506 203.67 72.553Z" fill="white"/>
<path d="M275.987 71.0196C277.734 71.0389 279.376 71.7747 280.573 72.9507C281.024 73.3427 280.915 74.1202 281 74.6504C279.171 74.7018 278.509 73.2141 276.803 72.7354C275.086 72.3434 273.015 72.4591 271.527 73.4487C270.237 74.2359 269.527 75.714 269.193 77.0796C268.934 78.503 268.968 80.0035 269.108 81.4398C269.36 83.3548 270.527 85.3791 272.588 85.9832C273.81 86.2081 275.107 86.1567 276.345 86.1181C278.058 86.1406 279.232 84.6979 280.58 83.8818C280.816 84.5855 281.253 85.1413 280.686 85.8257C279.785 86.7704 278.506 87.4291 277.212 87.7665C274.305 88.3416 271.077 87.9207 268.995 85.7582C267.088 83.7179 266.862 80.8132 267.057 78.2234C267.228 75.7718 268.347 73.2591 270.64 71.9289C272.141 70.9585 274.233 70.9649 275.987 71.0196Z" fill="white"/>
<path d="M336.283 71.0019C335.573 70.9973 334.863 70.9996 334.156 71.0261C333.338 71.0525 332.939 71.7868 333.007 72.5572C333.014 77.1966 333.007 81.8164 333.014 86.4524C332.968 87.0873 333.303 87.4805 333.621 87.9831C335.542 87.9732 337.466 88.0197 339.388 87.9899C340.777 87.9767 342.227 87.4607 343.055 86.2669C344.031 84.9971 344.122 83.3636 343.898 81.8226C343.756 80.5991 342.464 79.6734 341.666 78.8533C342.295 77.9605 343.223 77.0642 343.184 75.8903C343.194 74.9115 343.289 73.8434 342.688 73.0101C341.805 71.6312 339.968 70.9801 338.411 71.0198C337.703 71.0181 336.993 71.0064 336.283 71.0019ZM337.516 72.7529C338.031 72.7558 338.544 72.7796 339.05 72.8416C339.897 72.9474 340.63 73.3771 341.14 74.0748C341.513 74.7924 341.53 75.9862 341.228 76.7303C340.793 77.5173 339.917 78.1026 339.034 78.2018C337.684 78.3738 336.291 78.3077 334.945 78.1292C334.925 76.3667 334.922 74.6006 334.948 72.8348C335.796 72.8017 336.659 72.7482 337.516 72.7529ZM338.106 79.9742C338.74 79.978 339.373 80.0012 340.001 80.057C342.763 80.434 342.928 85.4238 340.273 86.0785C338.553 86.4191 336.697 86.2209 334.948 86.1812C334.929 84.1409 334.928 82.0973 334.938 80.057C335.989 80.0157 337.05 79.9679 338.106 79.9742Z" fill="white"/>
<path d="M162.236 72.162C162.805 72.1092 163.369 72.0527 163.938 72C163.965 72.6667 163.985 73.3333 164 74C163.335 73.9548 162.665 73.9058 162 73.8606C162.077 73.2957 162.155 72.7269 162.236 72.162Z" fill="white"/>
<path d="M377.126 73.1058C377.713 73.004 378.29 73.016 378.9 73C378.932 73.3333 378.968 73.6667 379 74C378.332 73.998 377.668 73.99 377 73.9721C377.029 73.6826 377.071 73.3952 377.126 73.1058Z" fill="white"/>
<path d="M293.955 76C293.731 76.0006 293.508 76.0301 293.291 76.1014C291.926 76.3386 290.692 76.7873 289.866 77.9667C288.773 79.3321 289.031 81.4282 289.018 83.0852C289.002 84.6301 289.419 86.0788 290.711 87.0244C292.074 88.066 293.7 88.1172 295.335 87.8897C296.521 87.7134 297.597 87.0213 298.192 85.9764C299.198 84.4989 298.986 82.5243 298.973 80.8096C298.999 78.9378 297.858 76.9346 295.978 76.4089C295.325 76.2551 294.628 75.9984 293.955 76ZM293.983 77.6733C294.845 77.6635 295.633 77.8479 296.306 78.5499C297.752 79.9697 297.517 81.7197 297.379 83.5787C297.099 84.6043 296.556 85.6719 295.554 86.1591C294.872 86.5789 293.912 86.5468 293.147 86.4347C291.473 86.034 290.547 84.3991 290.554 82.7613C290.56 81.726 290.431 80.4284 290.962 79.5053C291.325 78.6239 292.164 77.9152 293.099 77.7358C293.401 77.7013 293.696 77.6766 293.983 77.6733Z" fill="white"/>
<path d="M23.2634 77.0336C23.9774 77.0609 24.2565 77.522 24.6885 78.0195C25.8344 77.1731 26.5191 76.9486 27.9647 77.0093C27.9765 77.4158 27.9882 77.8223 28 78.2258C27.4682 78.3835 26.9334 78.5382 26.4074 78.7172C25.2761 79.0236 24.4299 80.3159 24.4328 81.496C24.3682 83.5861 24.5357 85.7703 24.33 87.8513C23.9157 87.8999 23.5014 87.9515 23.0871 88C22.9225 85.4457 23.0636 82.8732 23.0077 80.3129C23.0195 79.239 22.9078 78.0438 23.2634 77.0336Z" fill="white"/>
<path d="M30.1539 77.0111C30.5525 76.9958 30.9544 76.9958 31.353 77.0141C31.8058 79.5498 31.3721 82.2104 31.6081 84.7704C31.707 85.4439 32.3001 86.1114 33.04 86.1784C34.0669 86.3034 35.1671 86.3156 36.1844 86.1083C36.768 85.7213 37.2017 85.2428 37.2432 84.5357C37.4154 82.0428 37.1634 79.5315 37.3771 77.0355C37.8905 77.0385 38.4008 77.0446 38.9142 77.0507C39.0609 79.3425 38.9684 81.6466 38.9971 83.9414C39.0195 85.2032 38.64 86.5076 37.511 87.2634C36.2896 88.1015 34.4751 88.0832 33.0496 87.8912C31.6878 87.7083 30.122 86.5624 30.0806 85.1605C29.9498 83.6397 30.0295 82.0976 30.0072 80.5738C30.02 79.4004 29.9307 78.1631 30.1539 77.0111Z" fill="white"/>
<path d="M48.0153 76.0002C47.2629 76.0065 46.517 76.1545 45.8056 76.478C44.9426 76.9781 44.1141 76.3081 43.1977 76.1577C43.091 77.0337 42.9969 77.9062 43.0001 78.7887C43.0158 82.6063 43.0185 86.427 43.0029 90.2446C42.9935 91.1761 43.132 92.0881 43.292 93C43.6404 92.9869 43.9885 92.9742 44.3337 92.9579C45.09 91 44.6601 89.2285 44.7856 87.1497C45.7898 87.5354 46.6558 88.0223 47.7511 88.0517C49.248 88.1171 50.7043 87.7381 51.6709 86.4732C53.1991 84.3585 53.3685 81.2467 52.3894 78.8509C51.9343 77.6579 50.9585 76.6119 49.7691 76.2262C49.1897 76.076 48.6005 75.9953 48.0153 76.0002ZM47.9353 77.5213C48.8293 77.5136 49.7435 77.767 50.2398 78.4779C50.7827 79.2362 51.156 80.1221 51.1592 81.083C51.1748 82.6748 51.3788 84.0737 50.3055 85.3648C49.1318 86.8977 46.7092 86.9793 45.5261 85.417C44.5909 84.2926 44.7478 82.4528 44.7635 81.0572C44.7791 79.7171 45.256 78.426 46.4423 77.7755C46.8694 77.6248 47.3989 77.526 47.9353 77.5213Z" fill="white"/>
<path d="M60.1057 76.0004C59.6977 76.0044 59.2871 76.0364 58.8823 76.0795C57.5846 76.2421 56.4366 77.0647 55.7909 78.2452C54.9454 79.7054 54.911 81.7057 55.0825 83.3545C55.2136 84.9286 55.9655 86.3856 57.2477 87.2571C58.3177 88.0409 59.7622 88.07 61.0132 87.9431C62.6105 87.7968 63.9486 86.5771 64.5507 85.0681C65.1372 83.8908 64.9812 82.3302 64.9812 81.0326C65.003 79.6211 64.4291 78.154 63.4745 77.1524C62.5293 76.2255 61.3295 75.9884 60.1057 76.0004ZM59.8287 77.5397C60.1225 77.5387 60.4132 77.5543 60.6764 77.5592C61.9742 77.5852 62.9536 78.8112 63.172 80.0698C63.406 81.517 63.4182 83.1203 63.0189 84.535C62.1548 86.6977 59.1914 87.1723 57.6846 85.5007C56.5833 84.3982 56.8015 82.4861 56.7921 81.0259C56.7703 79.712 57.3134 78.4532 58.4427 77.806C58.8405 77.5885 59.3391 77.5413 59.8287 77.5397Z" fill="white"/>
<path d="M90.5902 76.0001C89.6119 76.0055 88.6335 76.1841 87.8856 76.9358C86.8082 77.8859 86.4314 79.1842 86.1109 80.5964C85.8705 82.4381 85.9742 84.2832 86.8913 85.8938C87.565 86.9839 88.5683 87.7809 89.7911 87.9143C91.2751 88.1258 93.2963 88.0184 94.4004 86.7494C94.7981 86.3622 94.6942 85.8709 94.7921 85.3438C93.599 85.3405 92.6493 86.1245 91.471 86.1798C90.7498 86.2254 89.9782 86.2058 89.2807 85.9715C88.1321 85.2589 87.7135 84.1919 87.7343 82.7732C90.1057 82.4739 92.456 82.7209 94.8482 82.5745C94.9877 81.351 95.151 79.8708 94.7326 78.6994C94.1657 77.3067 93.0051 76.1191 91.5597 76.0378C91.2421 76.0158 90.9163 75.9983 90.5902 76.0001ZM90.8224 77.5197C91.2371 77.5229 91.6505 77.5736 92.0349 77.6908C93.1479 78.514 93.6759 79.7143 93.5809 81.1851C91.6488 81.2501 89.7226 81.2146 87.7934 81.2146C87.6509 79.6072 88.2982 78.348 89.6011 77.6321C89.9914 77.5606 90.4076 77.5164 90.8224 77.5197Z" fill="white"/>
<path d="M123.863 77.0221C124.745 77.019 125.513 77.3896 126.136 78.0032C126.596 78.3707 126.403 79.1119 126.452 79.6344C125.654 79.3731 124.914 78.9752 124.128 78.6927C123.255 78.477 122.232 78.6563 121.35 78.7687C121.375 79.3276 121.028 80.3785 121.606 80.7218C122.946 81.6938 125.112 81.8244 126.41 83.167C127.078 83.7776 127.02 84.6311 126.975 85.4634C126.927 86.6814 125.832 87.5775 124.733 87.8418C123.71 88.0635 122.521 88.0575 121.507 87.7902C120.294 87.3862 119.156 86.7543 119 85.3358C120.126 85.1596 120.77 85.8279 121.754 86.1651C122.846 86.3807 124.059 86.2228 125.158 86.1195C125.155 85.4452 125.531 84.3122 124.875 83.8656C123.674 83.1579 122.166 82.9422 120.986 82.2436C120.399 81.8518 119.813 81.2594 119.614 80.5608C119.388 79.4916 119.629 78.2735 120.553 77.6083C121.516 76.8641 122.717 77.0038 123.863 77.0221Z" fill="white"/>
<path d="M130.166 77.0321C130.563 77.0077 130.957 76.9955 131.357 77.0016C131.799 79.4569 131.37 82.0404 131.602 84.5201C131.758 85.2064 132.199 86.0787 133.016 86.1824C134.039 86.3227 135.145 86.3502 136.155 86.1275C137.004 85.8133 137.239 85.0691 137.29 84.2669C137.379 81.8756 137.232 79.4782 137.366 77.087C137.877 77.0626 138.392 77.0382 138.904 77.0138C139.069 79.2129 138.964 81.4334 138.996 83.6386C138.961 84.3859 139.075 85.3558 138.646 86.0085C138.027 87.131 136.892 87.8356 135.577 87.9484C133.871 88.0704 131.971 88.0887 130.811 86.6735C129.81 85.5937 130.058 84.0443 130.013 82.7114C130.093 80.8356 129.854 78.8865 130.166 77.0321Z" fill="white"/>
<path d="M146.757 76.0014C146.324 76.0089 145.893 76.0448 145.479 76.0917C144.065 76.3003 142.701 77.2663 142.648 78.8615C144.137 79.2018 144.644 78.0145 145.896 77.5972C147.036 77.472 148.135 77.3788 148.941 78.3674C149.602 79.0511 149.418 79.8663 149.518 80.7521C147.64 80.9576 145.348 80.3862 143.735 81.4165C142.212 82.2318 141.512 84.2444 142.374 85.8268C143.087 87.3097 144.597 87.91 146.136 87.8458C147.319 87.8843 148.198 87.3421 149.225 86.8542C149.68 87.249 150.137 87.6373 150.617 88C151.171 86.6166 150.95 85.3324 150.984 83.8784C150.963 82.2799 151.053 80.6591 150.903 79.067C150.81 77.8826 149.932 76.7305 148.876 76.2779C148.207 76.0552 147.479 75.989 146.757 76.0014ZM147.216 82.4091C147.985 82.4179 148.758 82.4628 149.508 82.4693C149.427 83.2011 149.599 84.2254 149.144 84.8385C148.197 86.5429 145.516 86.8797 144.14 85.5894C143.57 84.5687 143.623 82.9187 144.94 82.5656C145.68 82.4276 146.446 82.4002 147.216 82.4091Z" fill="white"/>
<path d="M154.281 77.0526C155.202 77.0495 155.499 77.6024 156.072 78.1036C157.388 77.329 158.316 76.9797 159.961 77.0009C159.972 77.4201 159.986 77.8362 160 78.2554C159.119 78.5076 158.086 78.6473 157.293 79.0817C156.529 79.6193 155.874 80.4668 155.722 81.3082C155.552 83.5044 155.846 85.7795 155.545 87.9787C155.049 87.9848 154.558 87.9909 154.066 88C153.959 85.4484 154.044 82.8908 154.009 80.3362C154.02 79.2062 153.903 78.14 154.281 77.0526Z" fill="white"/>
<path d="M162.292 77.0182C162.827 76.984 163.352 77.0057 163.887 77.0213C164.072 80.6477 163.986 84.3176 163.932 87.9503C163.359 87.9689 162.782 87.9845 162.209 88C161.887 85.9366 162.219 83.9074 162.082 81.8379C161.986 80.2624 161.897 78.5688 162.292 77.0182Z" fill="white"/>
<path d="M171.946 76C171.147 76.0023 170.348 76.1205 169.626 76.4073C167.194 77.8591 166.695 81.0258 167.153 83.6924C167.547 85.2546 168.114 86.6581 169.555 87.4343C170.776 88.1099 172.393 88.1066 173.713 87.8078C175.73 87.2622 176.874 85.0796 176.97 83.0139C177.022 81.4062 177.1 79.7721 176.297 78.3332C175.774 77.2517 174.94 76.4105 173.772 76.1799C173.188 76.0662 172.567 75.9982 171.946 76ZM171.974 77.5335C172.164 77.5351 172.348 77.5411 172.517 77.5411C173.79 77.4956 174.996 78.7461 175.086 80.0551C175.268 81.6628 175.337 83.5204 174.773 85.0502C173.611 86.8886 170.745 86.986 169.48 85.2191C168.566 84.0823 168.886 82.0879 168.861 80.6945C168.821 79.535 169.455 78.5186 170.351 77.8917C170.779 77.5604 171.403 77.5286 171.974 77.5335Z" fill="white"/>
<path d="M184.665 77.0539C185.896 77.1085 186.64 77.8035 187.514 78.4682C187.5 78.8475 187.49 79.2299 187.48 79.6093C186.335 79.4697 185.416 78.8506 184.315 78.6442C183.454 78.6078 182.206 78.4803 181.51 79.0175C181.208 79.406 181.318 80.0281 181.249 80.4864C183.005 81.5486 185.186 81.8005 186.876 82.8871C188.43 83.8674 188.306 86.0798 186.914 87.1269C185.686 88.0647 183.78 88.0981 182.258 87.9069C180.958 87.7308 180.018 87.0965 179 86.4167C179.003 86.0191 179.01 85.6216 179.027 85.224C180.08 85.3636 180.931 85.8461 181.911 86.1587C183.259 86.3955 184.6 86.2892 185.923 85.9888C185.988 85.227 186.437 84.5866 185.69 83.9766C183.89 83.0145 181.033 82.8537 179.802 81.1571C179.446 80.0251 179.312 78.016 180.838 77.4909C181.918 76.8687 183.43 76.9901 184.665 77.0539Z" fill="white"/>
<path d="M214.18 76C214.994 76.3013 215.454 76.619 216.023 77.2216C216.607 76.8614 217.212 76.4552 217.874 76.2325C218.564 76.1179 219.299 76.1605 220 76.1572C219.926 76.7238 220.156 77.2773 219.625 77.6703C218.864 77.9028 218.043 77.9585 217.286 78.2205C216.359 78.8854 215.684 79.8745 215.645 80.9814C215.496 83.2347 215.68 85.4978 215.538 87.7544C215.071 87.8395 214.601 87.9214 214.127 88C213.925 85.8941 214.035 83.7817 214.017 81.643C214.035 79.7074 213.9 77.9061 214.18 76Z" fill="white"/>
<path d="M225.479 76C224.176 76.002 222.865 76.361 221.996 77.3152C221.556 77.6627 221.723 78.5628 221.66 79.0695C222.798 78.9104 223.493 78.121 224.486 77.663C225.52 77.5006 226.642 77.3673 227.419 78.2378C228.274 78.9297 228.186 79.8067 228.293 80.8234C225.986 81.0703 223.641 80.2486 221.805 81.9734C220.944 82.6783 221.031 83.6135 221 84.6399C221.044 85.5592 221.028 86.391 221.811 86.9919C223.568 88.4894 225.882 88.1124 227.806 87.1932C228.519 87.6057 229.063 87.8462 229.896 87.8332C230.066 85.4684 229.971 83.0842 229.993 80.713C230.015 79.0856 229.242 77.0263 227.715 76.3312C227.038 76.1265 226.26 75.9989 225.479 76ZM225.636 82.4997C226.515 82.4943 227.398 82.5313 228.274 82.5516C228.227 83.2792 228.249 84.1234 227.982 84.8055C227.372 86.0106 226.055 86.5922 224.772 86.4785C223.952 86.4915 223.257 85.9005 222.572 85.4945C222.562 84.8384 222.518 84.1591 222.616 83.5127C222.993 83.006 223.405 82.6035 224.058 82.5677C224.582 82.5215 225.108 82.5029 225.636 82.4997Z" fill="white"/>
<path d="M236.976 76.056C238.687 75.9292 240.318 75.8999 241.546 77.305C242.019 77.7148 241.882 78.284 242 78.8694C240.734 78.9735 240.187 78.0531 239.116 77.6237C238.271 77.4904 237.322 77.4709 236.497 77.7213C235.649 78.2645 235.054 79.1361 234.926 80.1542C234.773 81.3186 234.789 82.522 234.904 83.6864C235.022 85.1891 236.356 86.5259 237.862 86.4771C239.346 86.5584 240.398 85.42 241.914 85.2672C241.933 85.6737 241.949 86.0803 241.958 86.4869C241.159 87.0723 240.436 87.6968 239.435 87.8757C237.718 88.1782 235.851 87.9765 234.517 86.7341C233.535 85.6803 233.037 84.132 233.014 82.6944C232.976 81.4064 232.976 79.9233 233.542 78.7458C234.095 77.3277 235.451 76.1568 236.976 76.056Z" fill="white"/>
<path d="M254.662 76.0003C253.734 75.9922 252.732 76.1371 252.055 76.7695C250.576 77.9348 249.942 80.0901 250.01 82.0237C249.921 83.8499 250.428 85.8061 251.773 86.9747C253 88.0652 254.798 88.1434 256.286 87.8602C257.255 87.6649 257.924 87.0269 258.627 86.3238C258.461 85.9495 258.298 85.5782 258.132 85.2071C257.187 85.6986 256.075 86.5156 255 86.4831C253.883 86.5319 252.564 85.9135 252.055 84.7579C251.767 84.1654 251.714 83.4235 251.583 82.7757C254.013 82.359 256.405 82.9609 258.822 82.5573C259.08 81.0664 259.146 79.4781 258.402 78.1337C257.797 76.9846 256.787 76.1349 255.551 76.047C255.272 76.0226 254.971 76.003 254.662 76.0003ZM254.749 77.5105C255.172 77.5204 255.609 77.592 256.04 77.6907C257.154 78.4687 257.557 79.7903 257.587 81.1835C255.661 81.2486 253.72 81.2131 251.791 81.2131C251.829 80.2853 251.729 79.4782 252.324 78.7197C252.948 77.7663 253.817 77.4885 254.749 77.5105Z" fill="white"/>
<path d="M302.154 77.0578C302.56 77.0304 302.963 77.0091 303.37 77C303.7 79.3682 303.43 81.8338 303.541 84.2234C303.522 84.9417 304.119 85.8154 304.789 86.1167C305.694 86.3359 306.681 86.3146 307.605 86.2202C308.497 86.1685 309.18 85.3953 309.18 84.5521C309.307 82.5248 309.17 80.4823 309.218 78.452C309.259 78.1019 309.189 77.5053 309.516 77.274C309.808 76.9178 310.484 77.0609 310.907 77.0183C311.059 78.9299 310.973 80.808 310.996 82.7288C310.98 83.9281 311.119 85.0057 310.484 86.0954C309.9 87.3221 308.64 87.9035 307.281 87.9736C305.846 88.0497 303.954 88.0314 302.903 86.9325C301.763 85.7484 302.065 84.2051 302.014 82.7196C302.09 80.8476 301.862 78.9116 302.154 77.0578Z" fill="white"/>
<path d="M347.231 77.0137C348.069 77.1634 348.706 77.6951 349.556 77.3437C350.417 77.0014 351.094 76.9495 352 77.0381C351.983 77.521 351.969 78.0038 351.958 78.4867C351.147 78.6058 350.078 78.5355 349.464 79.2109C348.897 79.7396 348.667 80.3539 348.639 81.1668C348.556 83.3549 348.664 85.5491 348.569 87.7372C348.097 87.8105 347.625 87.8992 347.156 88C346.889 85.8639 347.064 83.6574 347.014 81.5029C347.05 80.0422 346.869 78.4225 347.231 77.0137Z" fill="white"/>
<path d="M358.604 76.0008C357.424 75.9855 356.275 76.178 355.379 77.1088C354.805 77.5995 354.77 78.2428 354.583 78.9446C355.956 79.1363 356.524 78.1813 357.632 77.6419C358.546 77.4729 359.71 77.4078 360.468 78.0674C361.345 78.7075 361.517 79.6271 361.591 80.6766C359.226 81.1997 357.226 80.228 355.37 81.6803C353.688 82.8435 353.554 85.5862 354.973 86.9996C355.978 87.8996 357.257 88.0455 358.534 87.9448C359.376 87.8668 360.128 87.4283 360.946 87.2951C361.604 87.4803 362.228 87.7888 362.88 88C363.089 85.8068 362.952 83.6008 362.996 81.3686C362.98 80.3776 363.061 79.2272 362.727 78.2849C362.184 77.0762 361.086 76.1765 359.785 76.066C359.393 76.0344 358.997 76.006 358.604 76.0008ZM359.142 82.468C359.96 82.479 360.781 82.5527 361.563 82.6161C361.485 83.3958 361.595 84.0914 361.142 84.764C360.278 86.2684 358.471 86.8566 356.914 86.249C356.459 85.9923 356.019 85.836 355.906 85.2414C355.791 84.3576 355.678 82.9866 356.742 82.6974C357.51 82.509 358.325 82.4571 359.142 82.468Z" fill="white"/>
<path d="M370.946 77.0594C371.897 77.1171 372.661 77.7482 373.398 78.2792C373.419 78.7131 373.435 79.1501 373.453 79.587C372.838 79.4656 372.274 79.3048 371.714 79.0226C370.8 78.5341 369.691 78.5159 368.699 78.7313C367.812 78.9407 367.611 80.3304 368.431 80.7734C369.755 81.6715 371.738 81.8596 373.011 82.9125C373.995 83.7348 374.321 85.1427 373.639 86.2593C372.789 87.8493 370.876 88.1224 369.238 87.9585C367.94 87.8796 366.966 87.2394 366 86.4353C366.021 86.0227 366.04 85.61 366.058 85.1973C366.959 85.4128 367.742 85.8891 368.61 86.1744C369.801 86.3777 370.998 86.2897 372.156 85.9559C372.186 85.4097 372.213 84.8605 372.244 84.3144C370.605 82.9459 368.485 83.0218 366.965 81.6442C365.842 80.3759 366.1 78.5675 367.462 77.6056C368.522 76.8592 369.713 76.9805 370.946 77.0594Z" fill="white"/>
<path d="M378.748 77.0223C379.096 78.7525 378.976 80.4302 378.987 82.1728C378.973 84.1317 379.096 86.0535 378.793 88C378.221 87.9753 377.652 87.9444 377.087 87.9104C376.941 84.6786 377.022 81.4282 377.026 78.1933C377.067 77.2448 377.778 76.9049 378.748 77.0223Z" fill="white"/>
<path d="M0.114887 97.153C1.40417 96.8707 2.73174 97.075 4.02741 97.0269C131.041 97.0329 258.054 97.0329 385.067 97.0329C387.027 97.0569 388.993 96.9488 390.952 97.087L391 97.994C388.811 97.8498 386.618 97.8859 384.429 97.8919C258.373 97.8919 132.317 97.8919 6.26131 97.8919C4.1774 97.9039 2.08391 97.8078 0 98L0.114887 97.153Z" fill="white"/>
<path d="M0.0606163 98.0537C2.14392 97.9689 4.23679 98.0113 6.32009 98.006C132.339 98.006 258.358 98.006 384.377 98.006C386.565 98.0033 388.757 97.9875 390.946 98.051C390.968 98.3529 390.984 98.6521 391 98.9539C389.213 99.0254 387.443 98.991 385.653 98.9963C258.782 98.9963 131.915 98.9963 5.04395 98.9963C3.35944 98.9936 1.68132 99.0201 0 98.9592C0.00957106 98.6574 0.0319031 98.3555 0.0606163 98.0537Z" fill="white"/>
<path d="M103.149 105.231C103.698 105.12 104.25 105.063 104.805 105C105.073 105.535 105.396 105.979 105.367 106.606C105.399 109.267 105.319 111.934 105.409 114.599C106.43 114.016 107.482 113.129 108.703 113.125C109.791 113.068 110.896 113.059 111.978 113.192C113.783 113.48 115.243 114.697 115.808 116.407C116.124 118.704 115.914 121.08 115.969 123.396C115.927 125.062 116.124 126.795 115.856 128.442C115.562 129.231 114.041 128.981 114.048 128.128C113.809 126.579 113.954 124.961 113.938 123.396C113.925 121.485 114.145 119.388 113.505 117.573C113.189 116.255 112.11 115.178 110.692 115.109C109.436 115.026 107.896 114.991 106.92 115.904C105.939 116.686 105.477 117.747 105.416 118.97C105.261 122.287 105.496 125.626 105.286 128.943C104.553 129.003 103.833 129.012 103.097 128.987C103.052 128.29 103.013 127.593 103.006 126.893C103 120.231 103.019 113.566 103 106.904C103.006 106.337 103.026 105.786 103.149 105.231Z" fill="white"/>
<path d="M316.788 105.099C317.379 104.746 318.101 105.393 318.104 106.127C318.262 108.269 318.118 110.453 318.163 112.604C318.208 117.435 318.07 122.283 318.239 127.111C318.821 127.49 319.407 127.865 320 128.221C319.969 128.815 319.935 129.409 319.902 130C319.125 129.958 318.006 130.104 317.395 129.432C316.298 128.505 315.989 126.847 316 125.358C316.028 119.156 316.003 112.934 316.012 106.731C315.972 106.121 316.284 105.328 316.788 105.099Z" fill="white"/>
<path d="M369.81 105C369.261 105 368.725 104.997 368.177 105.063C367.955 105.775 367.958 106.487 367.952 107.229C367.958 109.895 367.982 112.557 367.939 115.219C366.922 114.369 365.804 113.325 364.452 113.329C362.972 113.289 361.391 113.138 360.084 114.018C358.82 114.717 358.016 115.925 357.58 117.36C356.935 119.11 356.98 120.836 357.02 122.684C357.044 123.971 357.376 125.192 357.852 126.364C358.741 128.429 360.77 129.89 362.877 129.978C364.157 130.031 365.363 130.034 366.545 129.433C368.677 128.518 370.069 126.141 369.993 123.676C369.993 118.528 369.983 113.374 369.996 108.227C370.017 107.134 369.959 106.083 369.81 105H369.81ZM363.238 115.476C363.816 115.468 364.414 115.541 365.009 115.604C366.057 116.021 366.971 116.94 367.592 117.924C368.174 118.719 367.903 120.068 367.97 121.023C367.991 122.878 368.077 124.509 367.02 126.085C365.412 128.518 361.701 128.367 360.163 125.938C359.332 124.71 359.42 123.137 359.374 121.69C359.405 119.779 359.322 118.082 360.632 116.605C361.369 115.727 362.275 115.49 363.238 115.476Z" fill="white"/>
<path d="M32.0684 106.004C31.101 105.983 30.1179 106.049 29.118 106.141C26.6412 106.587 24.3732 107.788 22.9065 109.891C21.9801 111.296 21.2471 112.962 21.1377 114.661C20.9608 116.829 20.9509 119.016 21.1278 121.184C21.2661 123.19 22.1413 125.19 23.4375 126.717C25.316 129.05 28.6351 130.076 31.5332 129.995C33.6271 130.057 35.7051 129.51 37.5288 128.484C39.3558 127.29 40.7358 125.468 41.392 123.378C41.987 121.805 41.9933 120.226 41.9998 118.57C41.9805 116.534 42.1252 114.677 41.4047 112.729C40.6327 110.289 39.1503 108.166 36.7797 107.092C35.2498 106.309 33.6809 106.038 32.0684 106.004ZM30.842 108.385C31.7062 108.364 32.5898 108.43 33.4824 108.496C37.0399 109.037 39.3849 112.474 39.3881 115.959C39.3495 118.317 39.7256 121.249 38.6384 123.391C37.6671 125.585 35.5957 127.287 33.1672 127.452C31.2019 127.578 28.8668 127.691 27.1395 126.584C25.0874 125.358 24.0644 123.284 23.6076 120.997C23.1605 119.515 23.2573 117.819 23.3216 116.282C23.7687 113.654 24.4314 111.189 26.7376 109.6C28.0162 108.692 29.4016 108.419 30.842 108.385Z" fill="white"/>
<path d="M57.9297 106.156C60.1661 106.654 62.284 107.627 63.6575 109.494C63.9638 109.875 63.9242 110.513 64 110.982C63.3841 111.344 62.8208 112.036 62.116 111.389C60.726 110.176 59.6984 108.934 57.7584 108.546C55.3968 108.242 53.0385 108.184 51.0162 109.597C48.9312 110.878 48.1309 113.058 47.706 115.326C47.5709 116.94 47.6105 118.576 47.6533 120.197C47.8377 123.15 49.3759 126.071 52.3402 127.132C54.1748 127.62 56.24 127.617 58.1108 127.323C59.7939 127.003 60.7524 125.945 61.948 124.868C62.4552 124.26 63.2919 124.751 63.9572 124.806C63.8913 125.541 64.0725 126.181 63.4829 126.747C61.4177 128.973 58.1833 130.192 55.13 129.975C52.024 129.959 48.4141 128.526 46.7936 125.793C45.6507 123.82 44.8997 121.501 45.0117 119.214C45.0512 117.296 44.8174 115.319 45.4366 113.521C46.0426 111.211 47.2877 109.038 49.3528 107.705C51.9417 106.042 54.9258 105.767 57.9297 106.156Z" fill="white"/>
<path d="M156.554 106C157.116 106.042 157.688 106.157 158.243 106.249C158.309 106.755 158.527 107.382 158.336 107.868C157.847 108.188 157.364 108.475 156.749 108.466C153.606 108.527 150.453 108.415 147.306 108.511C147.263 111.076 147.28 113.641 147.3 116.206C150.146 116.305 153.001 116.132 155.84 116.311C155.873 116.983 155.893 117.654 155.906 118.326C153.051 118.451 150.195 118.313 147.339 118.412C147.244 121.102 147.29 123.795 147.296 126.485C150.734 126.856 154.244 126.51 157.694 126.67C158.177 126.67 158.603 127.112 159 127.348C158.911 128.039 158.848 128.481 158.203 128.884C157.083 129.069 155.896 128.973 154.759 128.989C151.626 128.951 148.483 129.056 145.35 128.928C145.171 128.257 145.006 127.595 145.009 126.894C145.023 121.451 145.016 116.004 145.016 110.561C145.036 109.006 144.847 107.554 145.393 106.051C149.111 105.981 152.833 106.064 156.554 106Z" fill="white"/>
<path d="M303.541 106.013C306.083 105.864 308.688 107.042 310.453 108.887C311.167 109.599 310.965 110.389 310.996 111.314C310.308 111.256 309.597 111.531 309.086 110.962C307.867 109.861 306.541 108.55 304.829 108.443C302.954 108.343 300.901 108.23 299.243 109.298C296.825 110.735 295.738 113.531 295.6 116.283C295.521 118.807 295.401 121.503 296.553 123.811C297.396 125.76 299.247 127.148 301.309 127.397C302.761 127.566 304.283 127.588 305.726 127.317C307.396 126.938 308.322 125.617 309.604 124.669C310.043 124.604 310.485 124.562 310.927 124.539C310.92 125.449 311.261 126.307 310.516 126.999C308.675 128.99 305.89 130.097 303.225 129.993C300.02 130.048 296.323 128.673 294.7 125.65C292.96 122.559 292.818 118.859 293.133 115.386C293.522 113.03 294.22 110.547 295.937 108.829C297.898 106.712 300.753 105.886 303.541 106.013Z" fill="white"/>
<path d="M69.093 106C69.6838 106.007 70.2717 106.023 70.8625 106.046C71.0566 108.067 70.9784 110.072 70.9899 112.099C70.9899 116.062 70.9899 120.024 70.9899 123.987C70.9813 125.945 71.0797 127.87 70.8017 129.818C70.2544 129.865 69.7099 129.931 69.1654 130C68.928 128.21 69.0177 126.45 69.012 124.647C69.012 120.133 69.0091 115.622 69.012 111.108C69.0148 109.401 68.9656 107.704 69.093 106Z" fill="white"/>
<path d="M85.9028 106C90.2538 106.076 94.6639 105.908 99.0017 106.083C100.23 106.295 99.9113 107.174 100 108.113C97.6915 108.453 95.2944 108.235 92.9596 108.298C92.7823 110.112 92.871 111.874 92.8546 113.702C92.848 118.336 92.8644 122.976 92.8546 127.61C92.7823 128.318 92.8743 129.24 92.2175 129.696C91.5246 130.446 90.372 129.673 90.2473 128.83C90.0043 127.363 90.2243 125.766 90.2243 124.279C90.2341 119.982 90.2144 115.685 90.2308 111.388C90.244 110.35 90.1487 109.322 90.0174 108.294C87.6958 108.215 85.2855 108.503 83 108.076C83.0788 107.399 82.8292 106.708 83.486 106.275C84.1559 105.888 85.1509 106.043 85.9028 106Z" fill="white"/>
<path d="M247 108.076C247.666 108.025 248.329 107.996 248.998 108C249.006 109.003 248.992 109.997 248.961 111C248.32 111 247.683 110.983 247.045 110.95C247.023 109.993 247.006 109.032 247 108.076Z" fill="white"/>
<path d="M183.752 109.68C183.984 111.076 183.793 112.524 183.966 113.932C184.977 113.945 185.989 113.968 187 114.001C186.983 114.664 186.955 115.33 186.92 115.993C185.916 116.073 184.912 116.148 183.904 116.191C183.866 119.447 183.776 122.738 183.945 125.987C183.966 127.524 185.888 127.666 187 128.253C186.934 128.791 186.872 129.329 186.806 129.866C185.854 129.962 185.016 130.147 184.091 129.79C182.352 129.21 181.227 127.379 181.327 125.664C181.306 122.517 181.4 119.364 181.286 116.221C180.558 116.129 179.838 116.016 179.111 115.921C179.052 115.297 179.021 114.674 179 114.047C179.717 113.995 180.437 113.942 181.161 113.906C181.372 112.477 181.324 111.049 181.393 109.611C182.349 108.899 182.903 108.674 183.752 109.68Z" fill="white"/>
<path d="M126.278 113.003C125.818 113.01 125.353 113.03 124.886 113.038C122.4 113.111 120.331 115.174 119.539 117.438C118.829 119.086 119.035 120.769 119.008 122.551C118.935 124.807 119.967 127.314 121.83 128.639C124.761 130.615 129.127 130.412 131.888 128.206C132.707 127.622 132.25 126.693 132.137 125.882C130.373 126.089 129.044 127.551 127.187 127.742C125.172 127.975 123.046 126.907 122.045 125.128C121.551 124.353 121.531 123.299 121.422 122.411C124.684 122.321 127.953 122.394 131.215 122.377C131.978 122.447 132.776 121.964 132.892 121.173C133.297 118.426 132.594 115.525 130.207 113.909C128.997 113.071 127.659 112.981 126.278 113.003ZM126.763 115.234C127.582 115.244 128.343 115.383 129.054 116.042C130.366 117.087 130.42 118.452 130.453 120.014C127.499 120.054 124.535 120.071 121.581 120.007C121.681 119.096 121.604 118.252 122.095 117.458C122.712 116.386 123.918 115.234 125.224 115.271C125.759 115.269 126.271 115.228 126.763 115.234Z" fill="white"/>
<path d="M163.936 113.08C164.712 112.946 165.291 113.932 165.806 114.421C166.833 113.718 167.734 113.033 169.025 113.03C170.492 112.993 172.339 112.859 173.617 113.732C174.891 114.534 175.915 115.926 175.944 117.524C176.047 119.53 175.963 121.547 175.986 123.553C175.96 125.677 176.095 127.787 175.85 129.857C175.242 129.837 174.634 129.81 174.026 129.78C173.546 125.991 174 122.092 173.765 118.28C173.53 117.036 172.742 115.718 171.528 115.31C170.412 114.999 169.012 115.019 167.905 115.374C166.569 115.986 165.581 117.343 165.542 118.888C165.291 122.186 165.539 125.526 165.407 128.83C165.52 129.743 164.097 130.439 163.544 129.67C162.858 129.091 163.048 128.406 163 127.59C163.032 123.249 162.977 118.895 163.023 114.554C162.984 113.869 163.444 113.444 163.936 113.08Z" fill="white"/>
<path d="M196.462 113C195.261 112.996 194.057 113.17 193.099 113.887C190.833 115.291 189.846 118.5 190.024 121.202C189.895 123.766 190.246 126.158 191.977 128.039C194.569 130.581 198.77 130.56 201.608 128.506C201.909 128.259 202.327 127.949 202.42 127.532C202.441 126.998 202.312 126.445 202.22 125.918C200.326 125.924 199.342 127.822 197.355 127.762C195.012 127.969 192.616 126.041 192.38 123.453C192.34 123.109 192.303 122.766 192.269 122.422C195.464 122.295 198.675 122.462 201.867 122.352C203.097 122.025 202.998 120.635 202.998 119.531C202.989 116.602 201.31 113.724 198.567 113.12C197.903 113.069 197.183 113.002 196.462 113ZM197.327 115.244C198.127 115.259 198.863 115.423 199.52 116.186C200.63 117.243 200.59 118.543 200.624 120.031C197.838 120.054 195.046 120.094 192.26 120.004C192.435 118.907 192.539 117.889 193.176 116.976C193.779 116.112 194.784 115.295 195.821 115.282C196.344 115.28 196.847 115.235 197.327 115.244Z" fill="white"/>
<path d="M208.118 113.048C208.881 112.904 209.258 114.011 209.679 114.532C210.295 114.082 210.932 113.575 211.627 113.269C212.754 112.84 213.869 112.977 215 113.31C214.903 113.924 215.063 114.579 214.535 114.982C213.21 115.405 211.963 115.361 210.819 116.391C209.786 117.449 209.365 119.054 209.334 120.547C209.239 123.629 209.415 126.734 209.236 129.813C208.687 129.83 207.857 130.286 207.477 129.709C206.871 129.108 207.041 128.436 207 127.644C207.035 123.29 206.991 118.926 207.019 114.575C206.972 113.931 207.433 112.981 208.118 113.048Z" fill="white"/>
<path d="M219.141 113C218.392 113.337 218.013 113.632 218.023 114.51C217.984 120.771 218.04 127.05 218.001 133.314C217.994 134.202 218.049 135.083 218.14 135.961C218.783 135.974 219.429 135.987 220.071 136C220.381 133.33 220.119 130.602 220.243 127.912C221.303 128.376 222.317 129.014 223.422 129.36C225.215 129.727 227.087 129.539 228.685 128.619C230.419 127.753 231.427 126.065 231.844 124.234C232.079 122.633 231.984 120.971 231.965 119.354C232.04 116.211 229.262 112.974 225.992 113.049C225.04 113.029 224.039 112.987 223.1 113.185C222.18 113.522 221.339 114.066 220.442 114.465C220.087 113.872 219.735 113.382 219.141 113ZM224.29 115.209C224.761 115.199 225.238 115.229 225.665 115.223C227.019 115.161 228.218 116.121 228.838 117.252C229.806 119.021 229.934 120.972 229.679 122.938C229.308 124.575 228.75 126.088 227.129 126.866C224.987 128.006 222.147 127.196 221.013 125.048C219.888 122.757 219.908 119.908 220.928 117.582C221.362 116.691 222.102 115.939 222.959 115.444C223.357 115.272 223.82 115.22 224.29 115.209Z" fill="white"/>
<path d="M236.211 113.177C236.797 112.999 237.33 113.111 237.932 113.149C238.055 113.74 238.182 114.329 238.299 114.924C238.937 114.364 239.623 113.782 240.374 113.381C241.499 112.831 242.8 112.999 244 113.136C243.974 113.728 243.932 114.319 243.88 114.911C242.312 115.15 240.68 115.261 239.545 116.492C238.556 117.704 238.072 119.231 238.179 120.777C238.081 123.497 238.436 126.318 237.955 129C237.359 129 236.768 129 236.176 128.994C236.068 128.284 235.997 127.575 236 126.856C236.013 122.924 236.013 118.996 236 115.064C236.007 114.424 236.016 113.798 236.211 113.177Z" fill="white"/>
<path d="M248.908 114.015C249.055 115.896 248.976 117.726 248.991 119.629C248.958 122.729 249.067 125.839 248.923 128.936C248.352 129 247.781 129.009 247.207 128.994C247.077 128.106 246.986 127.222 247.004 126.322C247.019 123.684 247.013 121.048 247.013 118.413C247.022 116.909 246.895 115.489 247.286 114.015C247.828 113.991 248.367 114 248.908 114.015Z" fill="white"/>
<path d="M256.73 113.175C257.9 112.948 259.136 112.988 260.326 113.041C261.78 113.055 263.179 113.953 264.114 115.044C264.633 115.555 264.183 116.537 264.075 117.147C262.263 117.081 261.418 115.295 259.645 115.275C258.771 115.258 257.711 115.158 256.968 115.695C256.022 116.086 256.11 117.311 256.309 118.145C256.802 118.99 258.011 119.437 258.865 119.788C260.482 120.432 262.582 121 263.811 122.295C265.555 123.967 265.35 127.295 263.394 128.711C261.643 130.083 259.508 130.166 257.408 129.842C255.794 129.475 254.011 128.627 253.085 127.165C253.033 126.694 253.003 126.22 253 125.746C253.694 125.78 254.314 125.563 254.901 126.017C256.381 127.045 258.001 128.036 259.869 127.666C260.711 127.419 261.969 127.075 262.341 126.174C262.439 125.322 262.621 124.208 261.754 123.71C259.824 122.308 256.475 122.125 254.598 120.028C253.587 118.953 253.574 117.598 253.743 116.196C253.962 114.701 255.351 113.515 256.73 113.175Z" fill="white"/>
<path d="M274.601 113.002C273.543 113.022 272.527 113.172 271.548 113.8C269.48 114.955 268.569 117.183 268.115 119.407C267.843 122.302 267.923 125.284 269.818 127.652C271.823 129.916 275.133 130.394 277.942 129.716C279.092 129.339 280.487 128.814 281.266 127.839C281.551 127.281 281.24 126.45 281.167 125.859C279.533 126.139 278.562 127.368 276.895 127.435C275.361 127.502 273.439 127.665 272.227 126.53C270.981 125.461 270.583 124.012 270.55 122.409C273.754 122.339 276.962 122.409 280.166 122.386C280.895 122.452 281.879 121.972 281.925 121.16C282.088 119.323 282.068 117.266 281.007 115.687C280.113 114.084 278.376 113.052 276.551 113.032C275.885 113.026 275.235 112.991 274.601 113.002ZM274.613 115.234C274.693 115.234 274.773 115.237 274.854 115.242C275.762 115.276 276.982 115.119 277.744 115.693C279.294 116.712 279.881 118.502 279.685 120.312C276.677 120.352 273.668 120.322 270.659 120.328C270.313 117.957 272.134 115.238 274.613 115.234Z" fill="white"/>
<path d="M329.438 113C328.658 113.002 327.871 113.048 327.155 113.288C325.773 113.832 324.609 114.831 323.88 116.193C323.01 117.659 323.044 119.517 323 121.197C323.044 122.983 322.949 124.957 323.848 126.54C325.009 128.858 327.417 130.08 329.849 129.99C331.909 130.1 333.938 129.286 335.266 127.589C336.616 125.889 337.08 123.364 336.988 121.193C337.08 119.353 336.623 117.566 335.758 115.977C334.771 114.16 332.805 112.947 330.818 113.011C330.372 113.013 329.906 112.999 329.438 113ZM329.706 115.228C330.083 115.232 330.456 115.252 330.802 115.252C332.042 115.221 333.237 116.22 333.809 117.329C334.682 119.076 334.78 121.29 334.509 123.21C334.26 124.87 333.578 126.45 332.092 127.238C329.994 128.407 326.912 127.712 325.899 125.291C325.044 123.554 325.148 121.794 325.237 119.897C325.439 118.064 326.256 116.324 327.896 115.505C328.437 115.259 329.077 115.222 329.706 115.228Z" fill="white"/>
<path d="M340.903 114C341.369 114.038 341.834 114.127 342.296 114.2C342.528 117.517 342.274 120.857 342.43 124.175C342.521 125.629 343.113 126.941 344.621 127.435C346.883 128.522 350.271 127.454 350.701 124.818C350.978 121.275 350.509 117.65 350.948 114.127C351.55 114.124 352.153 114.124 352.755 114.133C353.132 116.028 352.953 117.834 352.983 119.751C352.96 121.554 353.044 123.363 352.947 125.163C352.865 126.554 352.247 127.923 351.091 128.775C349.698 129.774 348.077 130.04 346.382 129.995C344.568 130.046 342.586 129.552 341.34 128.199C340.405 127.001 339.946 125.388 340.005 123.893C340.038 121.139 339.998 118.385 340.018 115.635C339.976 114.973 340.285 114.301 340.903 114Z" fill="white"/>
<path d="M115.462 117C116.308 119.44 115.856 122.181 115.96 124.816C115.866 126.693 116.346 128.282 115.397 130C114.72 129.955 114.046 129.906 113.373 129.841C113.283 126.778 113.376 123.711 113.332 120.648C113.318 119.82 113.238 118.998 113 118.195C113.684 120.057 113.449 122.207 113.463 124.166C113.48 125.771 113.325 127.431 113.58 129.019C113.573 129.893 115.2 130.149 115.514 129.341C115.801 127.651 115.59 125.875 115.635 124.166C115.576 121.791 115.801 119.355 115.462 117Z" fill="white"/>
</svg>
