<svg width="270" height="136" viewBox="0 0 270 136" fill="none" xmlns="http://www.w3.org/2000/svg">
<g clip-path="url(#clip0_1520_1779)">
<path d="M54.655 9.75H54.4907C50.6117 9.75 47.5045 10.8298 45.2545 12.9646C44.8338 13.3713 44.4512 13.8158 44.1115 14.2924C43.7715 13.8166 43.3913 13.3709 42.9752 12.9601C40.7747 10.8591 37.7125 9.78156 33.874 9.75676H33.559C29.671 9.75676 26.5637 10.8366 24.334 12.9646C22.1042 15.0927 20.959 18.0819 20.959 21.9323V44.809H25.5535V21.9323C25.5486 21.0025 25.6628 20.0759 25.8932 19.1753C26.1135 18.3025 26.5187 17.4876 27.0812 16.7857C27.723 16.0291 28.533 15.4338 29.446 15.0476C30.436 14.5968 31.786 14.3578 33.3632 14.333C33.4914 14.3578 33.6225 14.3639 33.7525 14.351C35.431 14.351 36.8035 14.5765 37.8227 15.0454C38.842 15.5143 39.6655 16.1071 40.1875 16.7857L40.2055 16.8037C40.7712 17.4907 41.175 18.2967 41.3867 19.1617C41.6076 20.0688 41.7224 20.9986 41.7287 21.9323V44.809H46.4942V21.9323C46.499 21.0045 46.6092 20.0803 46.8227 19.1775C47.0465 18.3093 47.4506 17.4981 48.0085 16.797C48.6607 16.0372 49.4792 15.4385 50.4002 15.0476C51.4015 14.5968 52.7717 14.3555 54.3625 14.342C54.4835 14.3578 54.606 14.3578 54.727 14.342C56.392 14.342 57.7577 14.581 58.777 15.0363C59.6877 15.43 60.4989 16.0231 61.1507 16.7722C61.7049 17.479 62.1085 18.2923 62.3365 19.1617C62.5642 20.067 62.6821 20.9965 62.6875 21.93V44.809H67.2752V21.9323C67.2752 18.0999 66.1502 15.0724 63.9137 12.9579C61.6772 10.8433 58.552 9.75 54.6505 9.75" fill="white"/>
<path d="M192.454 13.0006C191.299 11.9175 189.934 11.0849 188.443 10.5546C185.114 9.44142 181.514 9.44142 178.185 10.5546C176.698 11.0775 175.336 11.9051 174.187 12.9848C173.063 14.0694 172.184 15.3822 171.608 16.8351C170.992 18.4038 170.686 20.0775 170.708 21.7631V32.9985C170.708 36.8015 171.86 39.8043 174.13 41.9233C176.353 44.0131 179.44 45.0793 183.306 45.0793C186.807 45.0793 189.676 44.1934 191.856 42.4734L192.756 44.6984H195.928V21.7631C195.955 20.0764 195.649 18.401 195.028 16.8329C194.448 15.3859 193.567 14.0795 192.443 13.0006M191.221 21.7631V32.9985C191.211 33.9267 191.093 34.8505 190.868 35.751C190.665 36.6003 190.275 37.393 189.725 38.0707C189.092 38.8183 188.292 39.406 187.39 39.7862C186.382 40.2371 185.045 40.4625 183.304 40.4625C181.562 40.4625 180.221 40.2371 179.222 39.7682C178.326 39.3917 177.531 38.8112 176.898 38.073C176.347 37.3884 175.954 36.59 175.748 35.7352C175.525 34.836 175.406 33.9138 175.395 32.9872V21.7631C175.395 19.3555 176.07 17.4799 177.42 16.2084C178.77 14.937 180.732 14.281 183.297 14.2675C185.862 14.254 187.853 14.9438 189.192 16.2084C190.531 17.4731 191.217 19.3645 191.217 21.7631" fill="white"/>
<path d="M156.5 25.9244L146.204 23.0659C145.079 22.703 144.282 22.189 143.744 21.4879C143.242 20.8833 142.961 20.1241 142.95 19.3373C142.95 18.2101 143.15 17.3467 143.564 16.7223C143.956 16.0975 144.509 15.5904 145.164 15.2547C145.895 14.8701 146.689 14.6211 147.509 14.5198H147.531C148.436 14.3702 149.351 14.2948 150.267 14.2944C152.794 14.2944 154.823 14.7723 156.308 15.7191C157.634 16.5487 158.333 17.9577 158.408 19.9121C158.41 19.9568 158.415 20.0013 158.423 20.0451V20.6493H162.955V20.0406C162.966 19.9881 162.972 19.9344 162.971 19.8806V19.8603C162.872 16.4788 161.634 13.8796 159.287 12.1641C157.037 10.5613 154.04 9.74973 150.411 9.74973C148.918 9.74292 147.428 9.89863 145.967 10.2141C144.6 10.509 143.301 11.0646 142.142 11.8507C141.004 12.6119 140.07 13.6424 139.424 14.8512C138.727 16.0843 138.376 17.5834 138.376 19.3373C138.334 21.1665 138.932 22.9528 140.066 24.3869C141.204 25.8252 142.743 26.7765 144.77 27.295L155.098 30.2391C156.263 30.5795 157.123 31.1544 157.724 31.9975C158.278 32.8174 158.58 33.7823 158.592 34.7725C158.592 36.053 158.367 37.0494 157.895 37.7414C157.464 38.4311 156.859 38.9948 156.142 39.3758C155.321 39.7831 154.436 40.0419 153.525 40.14C150.791 40.4173 148.883 40.3812 147 40.0048C146.115 39.8305 145.269 39.4991 144.5 39.0264C143.86 38.6102 143.327 38.0477 142.946 37.3853C142.568 36.745 142.388 35.9087 142.388 34.8311C142.388 34.755 142.378 34.6793 142.358 34.6057V33.9993H137.858L137.773 34.5584C137.745 34.6527 137.732 34.7508 137.735 34.8492C137.804 38.2712 139.051 40.8682 141.44 42.5679C143.749 44.2068 146.762 45.0364 150.402 45.0364C152.005 45.0434 153.604 44.8924 155.177 44.5855C156.65 44.3054 158.054 43.7386 159.31 42.9173L159.328 42.9061C160.53 42.0614 161.513 40.9406 162.194 39.6373C162.881 38.2847 163.229 36.6413 163.229 34.7748C163.229 32.5813 162.633 30.6922 161.459 29.1616C160.334 27.6038 158.651 26.5127 156.491 25.9176" fill="white"/>
<path d="M89.7752 10.1445H76.9502C76.7798 10.147 76.6105 10.1712 76.4462 10.2167L75.8859 10.3452V14.2947L76.417 14.4007L76.5002 14.4277C76.6469 14.4679 76.7981 14.4891 76.9502 14.4908H85.1425V40.4153H75.877V44.5926L76.3967 44.7053C76.4935 44.7256 76.5227 44.7323 81.5717 44.7323C87.253 44.7323 95.7175 44.7188 95.7175 44.7188H96.3744V40.4041H89.7752V10.1445Z" fill="white"/>
<path d="M246.57 38.8507C245.353 40.0207 243.661 40.6136 241.537 40.6136C239.788 40.6136 238.492 40.1357 237.687 39.1979C236.83 38.1924 236.413 36.4454 236.413 33.8552V14.4884H246.19C246.266 14.4889 246.341 14.479 246.415 14.4591L246.932 14.3644V10.1444H246.338C246.291 10.1376 246.244 10.1339 246.196 10.1331H236.42V0H231.859V34.022C231.859 37.6649 232.69 40.44 234.334 42.2682C236.008 44.1393 238.436 45.0884 241.55 45.0884C244.576 45.0884 246.986 44.3106 248.705 42.7755L249.054 42.4621L247.274 38.1789L246.57 38.8507Z" fill="white"/>
<path d="M224.733 40.4425C224.631 40.4175 224.526 40.4047 224.42 40.4042H218.419V10.1221H205.565H205.489H204.879V14.4278H213.791V40.4042H205.565C205.529 40.4017 205.493 40.4017 205.457 40.4042H204.879V44.6986H224.42C224.532 44.6976 224.644 44.6848 224.753 44.6603L224.807 44.649L225.365 44.5633V41.103V40.4966L224.76 40.4492H224.724" fill="white"/>
<path d="M117.75 9.75C116.757 9.75887 115.768 9.89139 114.807 10.1445C113.795 10.3712 112.813 10.717 111.882 11.1747C110.95 11.6136 110.088 12.1887 109.324 12.8812C109.281 12.915 109.245 12.9489 109.205 12.9849L107.708 10.1265H105.107V44.809H109.684V21.6663C109.656 20.6441 109.857 19.6288 110.273 18.6951C110.66 17.7989 111.23 16.9943 111.948 16.334C112.666 15.6736 113.514 15.1723 114.438 14.8628C115.502 14.4877 116.623 14.3023 117.75 14.315C119.39 14.315 120.749 14.5404 121.773 15.007C122.677 15.4001 123.483 15.9873 124.136 16.7271C124.682 17.4136 125.079 18.2078 125.299 19.058C125.514 19.9623 125.628 20.8877 125.639 21.8173V44.8112H130.199V21.8173C130.199 17.9985 129.074 15.007 126.881 12.9218C124.687 10.8366 121.613 9.76578 117.75 9.76578" fill="white"/>
<path d="M270 76.4209H0V79.9759H270V76.4209Z" fill="white"/>
<path d="M38.8462 130.438L37.2262 125.161H31.1692L29.4998 130.438H25.875L31.5765 111.588H36.8685L42.5678 130.441L38.8462 130.438ZM34.965 117.048C34.8255 116.577 34.704 116.092 34.6005 115.592C34.497 115.091 34.4003 114.583 34.3103 114.068H34.0853C33.9773 114.582 33.8745 115.087 33.777 115.585C33.678 116.085 33.552 116.57 33.417 117.041L31.8217 122.226H36.5332L34.965 117.048Z" fill="white"/>
<path d="M54.0652 130.439V121.383C54.0704 120.95 54.0434 120.518 53.9842 120.089C53.9493 119.785 53.8463 119.493 53.6827 119.235C53.5343 119.016 53.3198 118.851 53.0707 118.764C52.7453 118.659 52.4044 118.611 52.0627 118.622C51.5002 118.633 50.9415 118.716 50.4 118.87C49.692 119.062 48.9962 119.298 48.3165 119.575V130.439H45V116.155H48.1882V117.296C48.928 116.867 49.7043 116.504 50.508 116.212C51.2668 115.936 52.0679 115.796 52.875 115.797C53.8815 115.797 54.6855 115.935 55.287 116.212C55.8486 116.456 56.3271 116.858 56.664 117.37C56.997 117.909 57.2103 118.514 57.2895 119.142C57.3924 119.885 57.442 120.634 57.438 121.383V130.439H54.0652Z" fill="white"/>
<path d="M66.1504 130.438V111.588H69.7054V130.441L66.1504 130.438Z" fill="white"/>
<path d="M82.6115 130.439V121.383C82.6162 120.95 82.5899 120.518 82.5328 120.089C82.496 119.785 82.3923 119.493 82.229 119.235C82.0806 119.016 81.8661 118.851 81.617 118.764C81.2916 118.659 80.9507 118.611 80.609 118.622C80.0465 118.633 79.4877 118.716 78.9463 118.869C78.2383 119.063 77.5426 119.298 76.8628 119.575V130.439H73.5508V116.155H76.739V117.296C77.4788 116.867 78.2551 116.504 79.0588 116.212C79.8133 115.937 80.6097 115.797 81.4123 115.797C82.4188 115.797 83.2228 115.935 83.8243 116.212C84.3859 116.456 84.8644 116.858 85.2013 117.37C85.5343 117.909 85.7476 118.514 85.8268 119.142C85.9297 119.885 85.9793 120.634 85.9753 121.383V130.439H82.6115Z" fill="white"/>
<path d="M98.3507 130.439V129.706C97.8078 130.038 97.2268 130.303 96.6204 130.495C95.8878 130.723 95.1239 130.833 94.3569 130.822C93.5897 130.834 92.8269 130.704 92.1069 130.439C91.4606 130.191 90.8855 129.786 90.4329 129.262C89.9467 128.679 89.59 127.999 89.3867 127.267C89.1327 126.346 89.0123 125.393 89.0289 124.438V122.409C88.9998 121.339 89.1519 120.272 89.4789 119.253C89.732 118.486 90.1639 117.79 90.7389 117.224C91.2869 116.706 91.9538 116.331 92.6807 116.133C93.493 115.906 94.3327 115.793 95.1759 115.797C95.6838 115.795 96.1915 115.82 96.6969 115.871C97.1754 115.921 97.6577 115.991 98.1437 116.081V110.731H101.483V130.439H98.3507ZM98.1774 118.845C97.6914 118.77 97.2084 118.709 96.7284 118.664C96.2484 118.619 95.8434 118.597 95.5134 118.597C95.0594 118.591 94.6062 118.638 94.1634 118.739C93.7893 118.825 93.4475 119.017 93.1779 119.291C92.8807 119.619 92.6716 120.017 92.5704 120.447C92.4199 121.087 92.3518 121.743 92.3679 122.4V124.429C92.358 124.976 92.4116 125.522 92.5277 126.056C92.6122 126.459 92.7886 126.836 93.0429 127.159C93.279 127.446 93.5908 127.66 93.9429 127.779C94.3731 127.916 94.8233 127.981 95.2749 127.97C95.7818 127.972 96.2871 127.914 96.7802 127.797C97.2561 127.685 97.722 127.535 98.1729 127.346L98.1774 118.845Z" fill="white"/>
<path d="M105.199 130.439V116.155H108.365V117.321C108.687 117.028 109.046 116.78 109.434 116.584C109.816 116.39 110.215 116.232 110.626 116.112C111.042 115.992 111.469 115.909 111.9 115.865C112.339 115.819 112.781 115.797 113.223 115.797V118.869C112.786 118.869 112.347 118.89 111.906 118.93C111.456 118.973 111.038 119.032 110.626 119.111C110.214 119.19 109.827 119.282 109.465 119.388C109.14 119.482 108.822 119.598 108.513 119.735V130.439H105.199Z" fill="white"/>
<path d="M122.692 130.439V129.496C122.121 129.868 121.506 130.166 120.86 130.382C120.452 130.518 120.035 130.623 119.611 130.698C119.138 130.783 118.659 130.824 118.178 130.822C116.851 130.822 115.822 130.485 115.093 129.812C114.364 129.139 114 128.113 114 126.735V126.2C114 125.251 114.163 124.492 114.488 123.924C114.808 123.36 115.288 122.905 115.867 122.616C116.535 122.293 117.255 122.094 117.994 122.028C118.906 121.932 119.822 121.886 120.739 121.89H122.433V120.989C122.441 120.575 122.405 120.162 122.327 119.755C122.273 119.466 122.122 119.204 121.9 119.011C121.636 118.815 121.326 118.692 121 118.653C120.494 118.589 119.984 118.564 119.474 118.576C118.759 118.576 118.028 118.599 117.287 118.644C116.547 118.689 115.777 118.759 114.988 118.849V116.595C115.221 116.5 115.46 116.421 115.703 116.358C116.034 116.268 116.423 116.18 116.873 116.099C117.323 116.018 117.816 115.946 118.356 115.887C118.913 115.829 119.472 115.801 120.032 115.801C120.98 115.779 121.927 115.878 122.849 116.097C123.505 116.249 124.11 116.569 124.606 117.025C125.049 117.471 125.36 118.03 125.506 118.642C125.696 119.413 125.786 120.206 125.774 121V130.439H122.692ZM122.507 123.948H120.739C120.208 123.944 119.678 123.969 119.15 124.023C118.772 124.053 118.403 124.153 118.061 124.318C117.785 124.457 117.565 124.687 117.438 124.97C117.293 125.327 117.225 125.711 117.24 126.097V126.703C117.231 126.983 117.281 127.262 117.388 127.521C117.478 127.725 117.619 127.902 117.796 128.035C117.984 128.169 118.199 128.26 118.426 128.301C118.695 128.353 118.968 128.378 119.242 128.376C119.584 128.376 119.926 128.345 120.262 128.281C120.577 128.223 120.889 128.148 121.196 128.056C121.461 127.977 121.721 127.881 121.974 127.769C122.157 127.691 122.335 127.602 122.507 127.503V123.948Z" fill="white"/>
<path d="M144.093 130.299L143.431 130.454C143.154 130.515 142.833 130.574 142.461 130.632C142.09 130.691 141.672 130.738 141.206 130.774C140.74 130.811 140.236 130.831 139.692 130.831C137.64 130.831 136.128 130.263 135.156 129.127C134.184 127.99 133.697 126.349 133.695 124.203V122.4C133.695 120.219 134.182 118.573 135.156 117.463C136.129 116.352 137.641 115.797 139.692 115.797C140.236 115.797 140.741 115.816 141.206 115.853C141.671 115.891 142.089 115.936 142.461 115.988C142.833 116.043 143.154 116.101 143.431 116.162C143.708 116.223 143.928 116.279 144.093 116.329V118.869C143.193 118.796 142.431 118.74 141.807 118.703C141.183 118.665 140.671 118.646 140.272 118.646C139.807 118.64 139.342 118.69 138.888 118.795C138.504 118.883 138.152 119.078 137.874 119.359C137.576 119.684 137.362 120.077 137.25 120.504C137.087 121.122 137.011 121.76 137.025 122.4V124.203C137.012 124.84 137.088 125.476 137.25 126.092C137.361 126.522 137.575 126.917 137.874 127.244C138.153 127.526 138.504 127.725 138.888 127.821C139.341 127.933 139.806 127.987 140.272 127.981C140.668 127.981 141.18 127.963 141.807 127.925C142.434 127.887 143.196 127.832 144.093 127.758V130.299Z" fill="white"/>
<path d="M159.274 124.169C159.274 126.433 158.722 128.108 157.616 129.194C156.511 130.281 154.92 130.823 152.844 130.822C150.768 130.822 149.176 130.279 148.067 129.194C146.959 128.109 146.404 126.434 146.404 124.169V122.425C146.404 120.17 146.959 118.504 148.067 117.427C149.176 116.349 150.768 115.806 152.844 115.797C154.921 115.797 156.512 116.34 157.616 117.427C158.72 118.513 159.273 120.179 159.274 122.425V124.169ZM155.96 122.425C155.971 121.839 155.912 121.255 155.782 120.684C155.686 120.26 155.494 119.863 155.22 119.526C154.961 119.225 154.626 119 154.25 118.874C153.34 118.603 152.372 118.603 151.462 118.874C151.087 119 150.753 119.225 150.495 119.526C150.219 119.863 150.024 120.259 149.926 120.684C149.793 121.254 149.731 121.839 149.741 122.425V124.169C149.731 124.757 149.791 125.343 149.921 125.916C150.015 126.345 150.207 126.745 150.481 127.086C150.739 127.39 151.074 127.618 151.451 127.745C152.365 128.015 153.337 128.015 154.25 127.745C154.627 127.618 154.962 127.39 155.22 127.086C155.494 126.745 155.687 126.344 155.782 125.916C155.911 125.343 155.971 124.757 155.96 124.169V122.425Z" fill="white"/>
<path d="M178.461 130.438V121.074C178.461 120.677 178.461 120.326 178.432 120.021C178.419 119.751 178.35 119.487 178.227 119.246C178.107 119.031 177.919 118.861 177.694 118.763C177.368 118.637 177.019 118.58 176.67 118.597C176.444 118.597 176.218 118.616 175.995 118.653C175.742 118.693 175.492 118.748 175.246 118.82C174.979 118.897 174.717 118.988 174.461 119.092C174.199 119.198 173.944 119.317 173.696 119.451C173.736 119.726 173.758 120.003 173.763 120.281C173.763 120.553 173.763 120.817 173.763 121.074V130.438H170.438V121.074C170.438 120.677 170.438 120.323 170.406 120.015C170.396 119.745 170.333 119.48 170.222 119.235C170.119 119.024 169.946 118.855 169.733 118.757C169.435 118.637 169.114 118.582 168.793 118.597C168.525 118.597 168.258 118.624 167.996 118.678C167.725 118.732 167.456 118.802 167.193 118.887C166.925 118.975 166.667 119.072 166.421 119.178C166.176 119.284 165.942 119.404 165.728 119.501V130.438H162.414V116.155H165.6V117.296C166.195 116.828 166.86 116.458 167.571 116.2C168.302 115.931 169.074 115.795 169.853 115.797C170.556 115.766 171.256 115.906 171.893 116.205C172.391 116.466 172.806 116.861 173.093 117.345C173.806 116.835 174.591 116.432 175.421 116.151C176.098 115.925 176.805 115.805 177.518 115.797C178.096 115.785 178.673 115.856 179.231 116.009C179.658 116.126 180.059 116.321 180.416 116.583C180.725 116.816 180.979 117.112 181.163 117.451C181.347 117.791 181.487 118.153 181.58 118.529C181.676 118.927 181.735 119.333 181.757 119.742C181.782 120.168 181.796 120.594 181.796 121.024V130.438H178.461Z" fill="white"/>
<path d="M185.434 135.664V116.156H188.536V117.098C189.165 116.663 189.858 116.331 190.591 116.113C191.28 115.907 191.995 115.8 192.715 115.797C193.448 115.786 194.178 115.907 194.868 116.156C195.499 116.394 196.057 116.793 196.486 117.314C196.971 117.927 197.319 118.636 197.507 119.395C197.761 120.418 197.879 121.47 197.858 122.524V123.85C197.889 124.975 197.737 126.098 197.408 127.175C197.154 127.978 196.714 128.711 196.123 129.312C195.566 129.851 194.884 130.244 194.139 130.457C193.308 130.692 192.448 130.807 191.585 130.797C191.36 130.797 191.124 130.797 190.87 130.772C190.615 130.748 190.359 130.734 190.107 130.705C189.855 130.676 189.614 130.642 189.378 130.606C189.142 130.57 188.928 130.529 188.755 130.488V135.673L185.434 135.664ZM194.546 122.524C194.557 121.896 194.502 121.269 194.38 120.653C194.298 120.226 194.124 119.822 193.871 119.469C193.654 119.183 193.357 118.968 193.018 118.849C192.629 118.724 192.221 118.664 191.812 118.671C191.587 118.671 191.362 118.681 191.137 118.703C190.902 118.725 190.669 118.764 190.44 118.82C190.174 118.881 189.912 118.956 189.655 119.046C189.373 119.145 189.065 119.271 188.728 119.418V127.716C189.214 127.807 189.675 127.876 190.111 127.921C190.526 127.965 190.943 127.987 191.36 127.988C191.815 127.994 192.268 127.943 192.71 127.835C193.097 127.737 193.446 127.525 193.711 127.226C194.016 126.861 194.23 126.428 194.337 125.964C194.501 125.269 194.576 124.555 194.562 123.84L194.546 122.524Z" fill="white"/>
<path d="M209.01 130.438V129.496C208.754 129.662 208.488 129.813 208.213 129.947C207.88 130.114 207.535 130.257 207.181 130.375C206.772 130.51 206.355 130.616 205.932 130.691C205.459 130.776 204.979 130.817 204.499 130.815C203.171 130.815 202.143 130.478 201.414 129.805C200.685 129.132 200.32 128.106 200.32 126.728V126.194C200.32 125.244 200.483 124.485 200.809 123.917C201.127 123.353 201.607 122.898 202.186 122.609C202.854 122.286 203.575 122.087 204.314 122.021C205.225 121.925 206.141 121.879 207.057 121.883H208.751V120.982C208.759 120.568 208.724 120.155 208.645 119.748C208.592 119.459 208.442 119.197 208.22 119.005C207.956 118.808 207.646 118.685 207.32 118.646C206.816 118.577 206.308 118.546 205.799 118.554C205.082 118.554 204.352 118.576 203.61 118.621C202.87 118.666 202.102 118.736 201.31 118.826V116.572C201.544 116.477 201.784 116.398 202.028 116.335C202.357 116.245 202.748 116.157 203.196 116.076C203.644 115.995 204.141 115.923 204.681 115.864C205.237 115.807 205.796 115.778 206.355 115.779C207.303 115.764 208.249 115.871 209.17 116.096C209.825 116.249 210.43 116.569 210.925 117.025C211.367 117.471 211.678 118.03 211.825 118.642C212.01 119.414 212.097 120.207 212.083 121.002V130.441L209.01 130.438ZM208.825 123.948H207.057C206.526 123.944 205.996 123.969 205.468 124.023C205.091 124.053 204.722 124.153 204.382 124.318C204.105 124.457 203.884 124.687 203.756 124.969C203.612 125.327 203.544 125.711 203.558 126.097V126.703C203.549 126.983 203.599 127.262 203.707 127.521C203.797 127.724 203.937 127.901 204.114 128.035C204.303 128.168 204.519 128.259 204.746 128.301C205.014 128.353 205.287 128.378 205.561 128.376C205.903 128.376 206.245 128.344 206.582 128.281C206.897 128.222 207.209 128.147 207.516 128.056C207.781 127.976 208.041 127.881 208.294 127.769C208.476 127.69 208.653 127.602 208.825 127.503V123.948Z" fill="white"/>
<path d="M224.688 130.439V121.383C224.693 120.95 224.666 120.518 224.607 120.089C224.57 119.785 224.467 119.493 224.303 119.235C224.155 119.016 223.941 118.85 223.691 118.764C223.367 118.659 223.026 118.611 222.686 118.622C222.123 118.633 221.564 118.716 221.023 118.869C220.315 119.062 219.619 119.298 218.939 119.575V130.439H215.625V116.155H218.815V117.296C219.554 116.866 220.33 116.503 221.133 116.212C221.888 115.937 222.685 115.797 223.489 115.797C224.495 115.797 225.298 115.935 225.898 116.212C226.461 116.455 226.94 116.858 227.278 117.37C227.61 117.909 227.823 118.514 227.901 119.142C228.004 119.885 228.054 120.634 228.049 121.383V130.439H224.688Z" fill="white"/>
<path d="M235.641 130.339L230.326 116.155H233.946L236.421 123.737C236.52 124.059 236.61 124.372 236.694 124.679C236.777 124.985 236.856 125.292 236.934 125.601C237.013 125.91 237.092 126.228 237.175 126.548C237.258 126.868 237.348 127.206 237.447 127.553C237.603 126.85 237.751 126.2 237.897 125.594C238.044 124.988 238.201 124.372 238.39 123.737L240.654 116.155H244.125L239.175 130.975C238.924 131.726 238.631 132.462 238.298 133.18C238.035 133.758 237.683 134.29 237.254 134.758C236.858 135.176 236.372 135.498 235.832 135.698C235.19 135.92 234.513 136.026 233.834 136.009C233.186 136.011 232.539 135.978 231.894 135.91C231.291 135.842 230.805 135.774 230.434 135.698V133.25C230.722 133.265 230.985 133.283 231.219 133.299C231.453 133.315 231.669 133.329 231.881 133.335L232.486 133.356C232.684 133.356 232.896 133.356 233.118 133.356C233.38 133.362 233.641 133.324 233.89 133.243C234.102 133.168 234.293 133.043 234.446 132.878C234.629 132.681 234.78 132.457 234.896 132.215C235.056 131.888 235.199 131.554 235.323 131.212L235.641 130.339Z" fill="white"/>
</g>
<defs>
<clipPath id="clip0_1520_1779">
<rect width="270" height="136" fill="white"/>
</clipPath>
</defs>
</svg>
