<svg width="638" height="141" viewBox="0 0 638 141" fill="none" xmlns="http://www.w3.org/2000/svg">
<path d="M104.796 9.32998C118.928 13.0467 131.743 21.8091 140.213 33.7072C146.936 42.9949 151.019 54.1052 152.008 65.5099C152.151 67.1414 152.128 68.5898 151.258 70.0304C146.202 79.1191 139.95 87.8258 132.357 94.9886C124.095 102.764 113.903 109.012 102.85 111.853C103.448 112.139 104.046 112.426 104.644 112.712C108.744 111.574 112.803 110.468 116.734 108.837C130.212 103.305 140.994 94.3439 150.931 83.9022C149.863 88.6376 148.483 93.4367 146.338 97.8059C145.755 99.1191 144.814 99.915 143.618 100.663C133.354 106.998 122.293 112.004 110.386 114.304C101.662 115.912 92.2113 116.326 83.5345 114.217C90.2734 113.922 96.9166 114.201 103.584 112.88C102.531 112.529 101.47 112.219 100.394 111.94C105.171 111.073 109.246 108.813 113.186 106.075C121.304 100.392 127.309 91.7574 129.885 82.207C132.222 73.5481 131.799 64.1251 128.561 55.7446C124.063 43.7351 113.824 34.0017 101.59 30.094C93.0726 27.2926 83.8296 27.2448 75.2884 29.9746C58.4611 35.1557 45.9723 51.065 45.2147 68.6694C45.1269 74.5827 44.9834 80.5198 47.4716 85.9954C47.1765 85.8521 46.8894 85.7168 46.6023 85.5735C46.7538 86.4888 46.8974 87.3961 47.0489 88.3113C47.4636 87.9293 47.8863 87.5393 48.301 87.1573C50.5818 92.3861 53.4847 97.2807 57.217 101.602C60.8776 106.664 65.4712 110.771 70.4555 114.495C82.5536 123.369 96.2945 127.897 110.889 130.723C106.247 132.426 101.335 133.803 96.4062 134.304C94.6995 134.567 93.2959 133.715 91.7727 133.047C81.9874 128.152 72.7125 122.191 64.9687 114.4C57.6238 107.07 51.491 97.9731 48.3568 88.0487C48.0538 88.5023 47.7507 88.956 47.4477 89.4176C48.7556 93.4128 50.1033 97.3762 51.9296 101.18C58.2777 114.511 68.0949 124.817 79.2759 134.233C58.7243 131.415 40.2542 118.244 31.083 99.6603C24.7827 87.2767 22.7571 72.7522 25.3968 59.1191C27.6218 47.0857 33.4436 35.8163 41.8811 26.9583C49.7604 18.7211 59.8887 12.6169 70.8782 9.55282C81.8837 6.45692 93.7505 6.35346 104.796 9.32998Z" fill="white"/>
<path d="M596.013 48.0366C591.631 48.0869 587.827 52.1572 588.56 56.7394C589.246 61.427 593.975 64.2526 598.481 62.8121C601.177 62.0003 602.445 59.9225 603.641 57.5508V53.6908C602.397 51.1281 600.826 48.9872 597.915 48.2709C597.277 48.1038 596.639 48.0294 596.013 48.0366ZM596.136 49.4985C597.523 49.4965 598.863 49.8976 599.965 50.866C602.924 53.1581 603.019 57.9884 600.092 60.3441C597.118 62.8431 592.492 62.0081 590.65 58.5779C588.871 55.0284 590.57 51.0893 594.23 49.7364C594.863 49.5847 595.505 49.4995 596.136 49.4985Z" fill="#DC4E6C"/>
<path d="M595.505 51.4362C594.789 51.4196 594.07 51.4877 593.385 51.5026C593.114 54.1767 593.273 56.9067 593.273 59.5887L594.446 59.5724C594.533 58.2592 594.526 57.2567 594.622 55.9435C594.601 56.1372 596.408 55.6913 597.391 56.42C597.611 56.5827 598.339 58.8283 599.18 59.4984C599.339 59.6245 599.567 59.5805 599.73 59.5448C599.539 58.5977 598.968 56.6382 598.681 55.6991C599.328 55.1004 599.716 54.3554 599.701 52.8119C599.231 52.2685 598.918 51.5155 597.343 51.4789L595.505 51.4362ZM598.002 52.5612C598.123 52.4775 599.522 53.3621 597.861 54.944C596.529 54.8963 595.654 54.921 594.33 54.8414C594.381 53.6793 594.154 52.7276 594.537 52.4167C594.648 51.956 598.303 52.3538 598.042 52.5332L598.002 52.5612Z" fill="#D83658"/>
<path d="M449.882 53.7273C449.57 53.7178 449.256 53.7195 448.942 53.732C437.888 53.8513 426.787 53.5727 415.749 53.8672C415.494 56.5254 415.63 59.2312 415.614 61.8973C425.925 61.9371 436.246 61.9053 446.566 61.8973C448.216 61.9689 450.234 61.9531 451.701 62.7728C453.081 63.7756 452.994 65.6852 451.909 66.887C450.298 67.7227 448.311 67.6668 446.541 67.7066C436.229 67.6668 425.926 67.6823 415.622 67.6902C415.63 76.2378 415.63 84.7943 415.622 93.3498C426.46 93.3578 437.299 93.3331 448.129 93.3649C452.547 93.357 457.156 92.8721 460.704 89.991C466.407 85.574 466.781 75.4665 460.984 70.9778L459.883 69.967C460.808 66.9507 461.63 64.1895 460.466 61.0777C458.933 56.4667 454.568 53.8699 449.882 53.7273ZM440.014 75.6154C443.263 75.5976 446.508 75.6388 449.731 75.8089C452.028 75.9601 455.282 76.3099 456.502 78.5941C457.053 80.2574 456.629 82.5969 455.09 83.6315C453.168 85.0402 450.409 84.9849 448.129 85.0247C440.026 84.969 431.915 85.0011 423.804 84.9933V75.8567C429.172 75.8368 434.6 75.645 440.014 75.6154Z" fill="white"/>
<path d="M176.371 54.161C188.533 54.153 200.695 54.153 212.873 54.145C216.007 54.1212 218.99 54.9329 221.446 56.9226C227.603 61.4829 227.387 72.5454 220.912 76.7475C218.527 78.4825 215.792 79.1112 212.873 79.0476C203.422 79.0237 193.988 79.0078 184.546 79.0316C184.562 83.8068 184.554 88.582 184.554 93.3492C181.826 93.3492 179.099 93.3492 176.371 93.3492C176.371 85.7885 176.387 78.2358 176.363 70.683C188.27 70.6512 200.177 70.6592 212.083 70.691C213.806 70.5955 215.552 70.8502 216.701 69.2903C217.61 67.8418 217.865 65.4144 216.797 63.9978C215.361 62.3265 213.272 62.5573 211.278 62.4777C199.642 62.5334 188.007 62.5095 176.371 62.5016C176.379 59.724 176.379 56.9385 176.371 54.161Z" fill="white"/>
<path d="M235.387 54.1608C238.186 54.1528 240.977 54.1528 243.776 54.1608C243.768 59.5249 243.768 64.897 243.776 70.269C254.67 70.269 265.572 70.277 276.466 70.269C276.466 64.897 276.466 59.5249 276.466 54.1528C279.257 54.1528 282.048 54.1528 284.84 54.1528C284.84 67.2209 284.84 80.281 284.84 93.349C282.048 93.349 279.257 93.349 276.466 93.349C276.466 88.3749 276.466 83.4008 276.466 78.4266C265.572 78.4266 254.678 78.4346 243.776 78.4187C243.768 83.3928 243.768 88.3749 243.776 93.349C240.977 93.349 238.186 93.349 235.387 93.349C235.395 80.281 235.395 67.2209 235.387 54.1608Z" fill="white"/>
<path d="M309.355 54.1294C306.125 54.0976 303.062 54.5748 300.446 56.5963C297.815 58.7371 296.077 62.0719 295.869 65.4623C295.694 68.1125 295.814 70.7946 295.798 73.4527C295.949 77.9573 295.112 83.043 297.265 87.0939C299.155 91.0573 303.398 93.4601 307.76 93.3567C316.541 93.3248 325.337 93.4046 334.118 93.317C340.171 93.1897 344.86 88.0964 345.33 82.215C345.625 77.4558 345.402 72.6495 345.466 67.8743C345.49 63.9109 344.453 60.0903 341.406 57.3843C338.703 54.9649 335.265 54.0978 331.701 54.1376C324.252 54.1455 316.804 54.1692 309.355 54.1294ZM330.903 62.4778C332.665 62.5733 334.532 62.3346 335.864 63.7194C337.499 65.1917 336.989 68.2793 337.108 70.2689C336.917 74.2721 337.483 78.5222 336.742 82.4458C335.976 84.9767 333.95 84.8969 331.701 85.0083C324.252 84.9924 316.804 84.9924 309.355 85.0083C307.433 84.8809 305.423 85.0568 304.61 82.9238C303.788 79.9552 304.291 76.5327 304.164 73.4527C304.259 70.6115 303.86 67.5151 304.546 64.7534C305.367 62.6046 307.353 62.5657 309.339 62.4941C316.524 62.4861 323.717 62.5335 330.903 62.4778Z" fill="white"/>
<path d="M356.416 54.1528C372.964 54.1528 389.512 54.1528 406.06 54.1528C406.06 56.9383 406.06 59.7239 406.06 62.5094C389.512 62.5094 372.964 62.5094 356.416 62.5094C356.416 59.7239 356.416 56.9383 356.416 54.1528Z" fill="white"/>
<path d="M474.048 54.1528C476.775 54.1528 479.502 54.1528 482.23 54.1608C482.206 61.9204 482.254 69.6721 482.198 77.4318C482.222 79.1986 482.15 81.1325 482.637 82.8437C483.546 84.706 485.292 84.9766 487.19 84.9925C494.639 85.0323 502.088 84.9527 509.536 85.0243C510.884 84.9288 512.902 85.2153 513.899 84.1568C515.334 82.8357 515.254 80.8222 515.334 79.0315C515.31 70.7386 515.31 62.4537 515.31 54.1608C518.109 54.1528 520.901 54.1528 523.7 54.1608C523.692 62.4457 523.692 70.7386 523.716 79.0315C523.724 82.1751 523.381 85.1755 521.634 87.8815C519.593 91.232 515.908 93.357 511.953 93.3411C503.435 93.3729 494.918 93.3411 486.401 93.357C481.927 93.4843 477.317 90.9376 475.252 86.9503C473.952 84.4433 474.04 81.7692 474.016 79.0235C474.079 70.7306 474.032 62.4378 474.048 54.1528Z" fill="white"/>
<path d="M547.807 54.1291C556.324 54.1927 564.841 54.1052 573.359 54.1609C576.995 54.1211 580.369 55.8959 582.243 59.0236C583.694 61.3157 583.607 64.0455 583.838 66.6639C581.031 66.6878 578.216 66.6877 575.408 66.7116C574.906 65.1597 575.52 62.6607 573.287 62.605C567.473 62.3264 561.612 62.605 555.79 62.5095C552.209 62.597 548.509 62.2309 544.968 62.7244C543.309 62.8994 542.687 65.0403 541.818 66.2421C543.277 67.2608 544.258 68.5182 546.18 68.4546C554.434 68.5899 562.704 68.3591 570.958 68.5103C575.129 68.5899 579.228 70.4601 581.637 73.9221C584.58 78.3949 584.42 84.8652 580.951 89.0196C578.511 91.9643 574.73 93.4048 570.95 93.3571C561.899 93.3412 552.855 93.365 543.803 93.3491C540.398 93.4685 537.391 91.6778 535.541 88.8923C533.739 86.2341 534.098 82.8756 533.994 79.8274C536.658 79.8195 539.329 79.8195 542.001 79.8195C542.232 81.4828 542.36 83.186 542.958 84.7538C551.435 85.3427 560.048 84.7936 568.55 85.0244C570.583 84.8732 573.295 85.494 574.555 83.4566C576.23 80.7506 575.193 77.4717 571.812 77.1374C565.695 76.8429 559.53 77.1215 553.397 77.0419C548.238 76.9544 543.173 77.7263 538.683 74.6066C533.197 71.2082 532.503 63.0188 536.602 58.2914C539.353 55.1318 543.764 54.0495 547.807 54.1291Z" fill="white"/>
<path d="M356.416 68.4785C372.9 68.4785 389.377 68.4785 405.861 68.4785C405.861 71.3277 405.861 74.1769 405.861 77.034C392.168 77.042 378.483 77.0261 364.79 77.042C364.79 79.6922 364.79 82.3345 364.79 84.9847C378.547 85.0006 392.304 84.9847 406.06 84.9926C406.06 87.7782 406.06 90.5637 406.06 93.3492C389.512 93.3492 372.964 93.3492 356.416 93.3492C356.416 85.0563 356.416 76.7714 356.416 68.4785Z" fill="white"/>
<path d="M61.0684 104.714C69.809 110.587 79.2035 115.171 89.6508 117.058C105.912 120.177 121.495 117.392 137.03 112.418C133.784 116.007 130.267 119.581 126.296 122.382C124.725 123.584 123.034 123.496 121.16 123.639C113.233 124.037 105.194 123.576 97.3785 122.231C84.8099 120.026 72.8953 114.917 63.094 106.704C62.4002 106.051 61.7303 105.39 61.0684 104.714Z" fill="white"/>
</svg>
