<svg width="242" height="143" viewBox="0 0 242 143" fill="none" xmlns="http://www.w3.org/2000/svg">
<path d="M101.782 27.8411C99.267 27.9498 98.6187 30.4194 97.8548 35.7852C97.4116 38.8985 96.4567 42.6441 97.0254 43.7831C97.3779 44.489 99.4296 45.0494 100.035 42.5866C100.787 39.53 102.285 39.2584 103.385 42.5562C104.045 44.5345 105.722 44.6475 106.258 43.8497C106.831 42.9954 105.879 38.369 105.331 35.7712C104.299 30.8811 103.758 27.7557 101.782 27.8411ZM101.621 34.1202C102.345 34.1505 102.877 35.2193 102.841 36.0586C102.76 37.9024 101.245 38.4226 100.529 37.3065C99.7861 36.1501 100.351 34.2994 101.473 34.1284C101.523 34.1208 101.573 34.1182 101.621 34.1202Z" fill="white" stroke="white" stroke-width="1.23339"/>
<path d="M90.4613 27.9503C90.1125 27.9515 89.7549 27.9629 89.3924 27.9801C87.1494 28.0868 86.9369 28.363 86.9118 35.2124C86.8954 39.685 86.4989 43.4353 86.978 43.9712C87.6485 44.7212 89.4436 44.599 89.6573 43.0327C89.8342 41.7358 89.6217 39.8273 89.9115 39.4219C90.0328 39.2522 89.6198 38.9356 91.9795 42.3685C92.8831 43.6832 93.2242 44.5009 94.1586 44.3098C95.2757 44.0814 95.5489 42.5747 95.108 41.5755C94.8454 40.9803 94.7296 41.062 93.422 39.02C92.1458 37.0271 92.184 37.5474 92.7563 37.0846C93.9628 36.1089 94.3035 35.7925 94.8739 34.8702C95.5061 33.8481 95.1765 31.8701 95.1341 31.3286C94.9094 28.4648 92.9025 27.9435 90.4613 27.9503ZM90.5121 30.9064C91.1402 30.9003 91.8211 31.0574 92.0386 31.3429C92.8711 32.4358 92.4792 34.2851 91.834 35.0062C91.2517 35.657 89.2973 35.5149 89.2943 35.0646C89.2849 33.5879 89.2854 33.3519 89.305 31.4454C89.3086 31.08 89.8841 30.9122 90.5121 30.9064Z" fill="white" stroke="white" stroke-width="1.24561"/>
<path d="M59.1201 28.6462C59.312 28.039 60.864 27.5969 61.4934 28.7453C61.8748 29.4412 61.4139 31.958 61.3924 34.8723C61.3706 37.82 61.0392 40.153 62.927 40.1774C64.8148 40.2018 64.4119 37.8639 64.4254 34.3908C64.4378 31.2189 64.3846 29.4555 64.6546 28.7033C64.9932 27.7599 66.286 27.918 66.6587 28.6242C67.0001 29.2709 66.9872 31.3467 66.9476 34.8966C66.9008 39.0781 67.1212 42.0119 66.226 43.0922C64.8707 44.7276 60.6063 44.7464 59.4538 43.1394C58.7529 42.1623 58.5131 30.5667 59.1201 28.6462Z" fill="white" stroke="white" stroke-width="1.20046"/>
<path d="M43.5186 44.5104C41.2846 44.4741 41.6749 43.7051 41.8154 37.3044C41.8898 33.9102 42.1052 31.01 41.6511 31.0018C39.8928 30.9704 39.6336 30.7215 39.6713 29.4787C39.7232 27.769 40.7078 28.0012 42.7114 27.9535C43.1733 27.9425 44.6699 27.8301 46.4992 27.9307C47.7665 28.0003 47.6516 28.818 47.6581 29.5968C47.6692 30.9334 47.6002 31.0765 45.4571 31.0128C45.2995 31.008 45.3563 33.6234 45.3493 37.0473C45.3362 43.3721 45.9437 44.5499 43.5186 44.5104Z" fill="white" stroke="white" stroke-width="1.21027"/>
<path d="M31.946 42.8555C31.5105 42.3003 31.0643 41.2175 31.0597 40.4602C31.056 39.8462 30.9383 38.8462 31.9575 38.9699C33.2936 38.5453 33.1919 40.3125 33.4443 40.9624C33.856 42.0223 35.3252 41.4462 35.6781 41.2192C37.0594 40.3306 36.0641 38.0436 33.8202 37.1829C31.3496 36.2353 30.6563 35.0488 30.6886 32.3729C30.7307 28.8764 31.4727 28.1328 33.804 27.8951C36.9204 27.5773 38.3335 28.8593 38.3335 31.1631C38.3335 33.3657 36.7774 33.7839 36.1753 32.3931C35.8876 31.7285 34.593 31.1694 34.121 31.4878C32.937 32.2863 33.0332 34.0673 35.3424 35.2358C37.2499 36.201 39.106 37.4151 39.106 40.0687C39.106 43.0835 36.9986 44.387 34.8973 44.387C34.3518 44.387 32.8729 44.0373 32.4375 43.4821L31.946 42.8555Z" fill="white" stroke="white" stroke-width="1.23582"/>
<path d="M20.5936 43.6508C20.1221 42.8732 20.3643 40.7785 20.3535 35.7632C20.3403 29.6594 20.3231 28.7455 20.851 28.2533C21.1082 28.0136 21.8345 27.8958 22.2538 28.6021C22.3248 28.7216 22.9799 30.3602 23.1011 30.7356C24.6368 35.4894 26.1728 38.4722 26.178 34.9915C26.1787 34.5553 26.2506 31.8888 26.2152 29.6142C26.1858 27.7283 28.3482 27.5665 28.8441 28.6427C28.9285 28.8259 28.9851 32.6891 28.9772 36.5641C28.9601 44.9189 29.0632 44.0216 27.7562 44.0747C27.1361 44.0999 27.0394 43.655 25.4097 41.1437C23.0688 37.5363 22.7888 38.3098 23.0136 41.1502C23.3184 45.0017 21.2634 44.7554 20.5936 43.6508Z" fill="white" stroke="white" stroke-width="1.23899"/>
<path d="M14.814 27.9004C12.6018 27.9028 10.9608 29.8434 10.9319 36.3478C10.9128 40.6608 11.8428 43.1508 12.546 43.7021C13.4044 44.375 15.5024 44.7171 16.9875 43.5943C17.6036 43.1285 18.6129 40.7148 18.6607 35.8318C18.712 30.5873 17.0853 27.8979 14.814 27.9004ZM14.7786 31.3356C15.5251 31.3399 16.2401 32.6848 16.2011 35.6474C16.1653 38.3644 16.0331 40.9785 14.8885 41.1481C13.9256 41.2907 12.9834 40.1718 13.168 35.0678C13.2548 32.6677 14.032 31.3314 14.7786 31.3356Z" fill="white" stroke="white" stroke-width="1.24822"/>
<path d="M1.01405 41.6968C0.939195 40.0184 1.18557 30.7708 1.23249 29.7372C1.32072 27.794 3.61841 27.9387 5.5411 27.985C7.41139 28.03 8.63073 28.8436 8.94274 30.9356C9.31338 33.4206 7.85099 34.6725 6.66315 32.9311C5.66015 31.4608 4.71336 31.9677 4.34794 32.342C3.90835 32.7922 3.90716 34.4928 3.8669 35.8129C3.82375 37.2272 3.71453 39.3097 4.24553 40.3493C4.68277 41.2053 6.10791 41.5945 6.57992 39.6267C6.81011 38.667 7.66286 38.3623 8.63677 39.0458C9.43609 39.6069 9.01003 42.8146 8.7999 43.3135C8.35248 44.3759 7.00461 44.4942 3.36198 44.4414C1.677 44.417 1.09495 43.5108 1.01405 41.6968Z" fill="white" stroke="white" stroke-width="1.25057"/>
<path d="M72.4717 44.5212C70.2378 44.4848 70.628 43.7159 70.7685 37.3152C70.843 33.921 71.0583 31.0207 70.6042 31.0126C68.846 30.9812 68.5867 30.7322 68.6244 29.4895C68.6763 27.7798 69.661 28.0119 71.6645 27.9643C72.1265 27.9532 73.623 27.8409 75.4523 27.9414C76.7196 28.011 76.6047 28.8287 76.6112 29.6075C76.6223 30.9441 76.5533 31.0872 74.4102 31.0235C74.2527 31.0187 74.3095 33.6341 74.3024 37.058C74.2894 43.3829 74.8968 44.5607 72.4717 44.5212Z" fill="white" stroke="white" stroke-width="1.21027"/>
<path d="M81.1501 27.8301C78.9389 27.8325 77.2987 29.7958 77.2698 36.3803C77.2507 40.7465 78.1791 43.2671 78.882 43.8251C79.7399 44.5063 81.8381 44.8527 83.3225 43.7161C83.9384 43.2445 84.9472 40.8011 84.995 35.8579C85.0463 30.5489 83.4203 27.8276 81.1501 27.8301ZM81.1146 31.3064C81.8608 31.3107 82.5755 32.6722 82.5365 35.6712C82.5007 38.4218 82.3686 41.0693 81.2246 41.2409C80.262 41.3853 79.3203 40.2514 79.5048 35.0846C79.5916 32.6549 80.3685 31.3021 81.1146 31.3064Z" fill="white" stroke="white" stroke-width="1.25559"/>
<path d="M52.6064 27.8448C52.2577 27.846 51.9002 27.8575 51.5377 27.8747C49.295 27.9819 49.0825 28.2593 49.0574 35.1367C49.0411 39.6275 48.6458 43.3932 49.1248 43.9313C49.7952 44.6844 51.5889 44.5617 51.8025 42.989C51.9794 41.6867 51.767 39.7704 52.0567 39.3634C52.178 39.193 51.7651 38.8751 54.1244 42.322C55.0279 43.6421 55.369 44.4632 56.3032 44.2713C57.4202 44.0419 57.6933 42.5291 57.2525 41.5258C56.99 40.9282 56.8753 41.0102 55.5679 38.9599C54.2919 36.9588 54.3301 37.4812 54.9023 37.0165C56.1086 36.0368 56.4493 35.7191 57.0196 34.793C57.6517 33.7668 57.3222 31.7807 57.2797 31.2369C57.0551 28.3614 55.0473 27.838 52.6064 27.8448ZM52.6573 30.813C53.2853 30.8069 53.9672 30.9646 54.1847 31.2513C55.0171 32.3487 54.6241 34.2055 53.979 34.9296C53.3967 35.5831 51.4426 35.4404 51.4396 34.9882C51.4302 33.5055 51.4318 33.2685 51.4514 31.3543C51.4552 30.9873 52.0293 30.8189 52.6573 30.813Z" fill="white" stroke="white" stroke-width="1.24807"/>
<path fill-rule="evenodd" clip-rule="evenodd" d="M2.6683 48.3942L32.4274 140.276C32.7564 141.099 32.973 141.933 34.2614 141.838L63.905 142.108C65.6215 141.931 65.8502 140.881 66.1884 140.122L95.972 49.0841C96.5185 47.5437 96.2057 46.6618 95.3018 46.5277L69.3157 46.5028L49.5097 113.963C42.8911 91.7904 30.0218 48.3306 29.4554 46.6518L4.43725 46.5028C3.02501 46.4605 2.43635 47.9408 2.6683 48.3942Z" fill="white" stroke="white" stroke-width="0.937832"/>
<path fill-rule="evenodd" clip-rule="evenodd" d="M138.411 67.8141C134.82 67.8391 129.243 68.0047 125.137 68.0223L125.277 84.1687C127.91 84.1453 140.405 84.1567 141.494 84.1332C148.185 82.6679 149.502 70.3054 141.213 67.8472C140.586 67.8136 139.609 67.8058 138.411 67.8141Z" stroke="white" stroke-width="0.937832"/>
<path fill-rule="evenodd" clip-rule="evenodd" d="M139.802 103.435C135.742 103.43 129.387 103.537 124.867 103.554L125.022 119.678C127.919 119.655 142.605 119.669 143.604 119.633C148.971 119.103 150.856 105.241 142.945 103.484C142.254 103.451 141.156 103.436 139.802 103.435Z" stroke="white" stroke-width="0.983156"/>
<path fill-rule="evenodd" clip-rule="evenodd" d="M148.576 47.0728L171.137 47.3758C170.963 44.4197 170.662 39.952 174.517 33.7078L157.782 19.6914C150.918 28.9378 148.716 38.6791 148.576 47.0728Z" fill="white" stroke="white" stroke-width="0.937832"/>
<path fill-rule="evenodd" clip-rule="evenodd" d="M158.053 19.3489L174.76 33.2992C179.67 26.0656 186.831 23.6583 192.701 23.5988L192.775 1.08838C176.88 1.83335 164.751 10.3521 158.053 19.3489Z" fill="white" stroke="white" stroke-width="0.937832"/>
<path fill-rule="evenodd" clip-rule="evenodd" d="M193.189 23.5035L193.227 1.05557C210.868 0.151519 230.276 10.283 238.44 31.1468L213.824 39.4551C210.814 30.3592 204.142 24.4107 193.189 23.5035Z" fill="white" stroke="white" stroke-width="0.937832"/>
<path fill-rule="evenodd" clip-rule="evenodd" d="M213.815 39.9258L238.588 31.5752C246.867 52.7844 237.242 83.2262 207.571 92.119L207.434 61.3836C211.778 57.5751 216.278 49.5459 213.815 39.9258Z" fill="white" stroke="white" stroke-width="0.937832"/>
<path fill-rule="evenodd" clip-rule="evenodd" d="M149.004 47.3129C150.564 67.2895 159.901 85.1816 181.433 91.8419L181.634 63.8075C175.862 60.8124 171.69 54.1712 171.158 47.2603L149.004 47.3129Z" fill="white" stroke="white" stroke-width="0.937832"/>
<path fill-rule="evenodd" clip-rule="evenodd" d="M181.506 139.085C181.433 141.575 181.447 141.57 183.613 141.734L205.376 141.594C207.433 141.596 207.44 141.601 207.389 138.658L207.324 49.6802C207.38 47.2425 207.382 47.2708 205.095 47.2412L183.419 47.1367C181.609 47.2166 181.632 47.211 181.647 48.9311L181.506 139.085Z" fill="white" stroke="white" stroke-width="0.93441"/>
<path fill-rule="evenodd" clip-rule="evenodd" d="M101.654 46.5845C100.256 46.6017 100.184 47.0373 100.066 47.7766L99.4475 139.527C99.2274 142.144 100.722 141.891 102.028 141.91L152.862 140.998C154.066 141.133 165.346 138.43 171.585 128.706C174.527 124.72 175.629 111.399 174.203 107.951C170.388 97.8172 164.755 95.66 158.816 93.1644C163.151 90.7501 168.329 85.4669 168.487 84.7884C170.785 80.5032 173.353 75.7931 170.915 62.4621C168.971 54.6151 160.594 50.004 158.376 49.3854C156.445 48.6913 148.275 46.9853 146.016 47.041L101.654 46.5845ZM138.411 67.8142C139.608 67.8059 140.585 67.8136 141.213 67.8473C149.501 70.3055 148.184 82.668 141.493 84.1332C140.405 84.1568 127.909 84.1453 125.277 84.1687L125.136 68.0223C129.243 68.0048 134.82 67.8391 138.411 67.8142ZM139.802 103.435C141.155 103.437 142.253 103.451 142.944 103.485C150.856 105.241 148.97 119.103 143.603 119.634C142.604 119.669 127.918 119.655 125.021 119.678L124.866 103.555C129.386 103.537 135.741 103.43 139.802 103.435Z" fill="white" stroke="white" stroke-width="0.937832"/>
</svg>
