<svg width="478" height="141" viewBox="0 0 478 141" fill="none" xmlns="http://www.w3.org/2000/svg">
<g clip-path="url(#clip0_1520_1917)">
<path d="M69.0782 2.79817C49.6418 2.7049 29.9899 10.6829 17.2598 25.3815C7.32805 36.3689 2.23066 50.0678 0 64.5935V75.1038C1.93855 94.0191 10.3036 111.657 25.2809 123.602C46.7378 141.241 78.8446 143.925 102.691 129.479C121.094 118.891 133.788 98.355 135.647 77.2316C138.276 51.2929 125.049 24.7948 102.291 11.9718C92.3225 5.81636 80.74 2.85413 69.0782 2.79817ZM70.8131 7.80197C77.3039 7.72377 83.7812 8.60372 90.0218 10.6156C118.357 20.2196 136.627 49.8034 132.006 79.5464C127.864 111.923 96.1309 137.49 63.5738 133.127C32.9288 130.706 6.98266 102.798 7.14199 71.8848C6.45155 41.4236 28.9994 13.7286 59.1665 8.9399C63.0204 8.24155 66.9186 7.84889 70.8131 7.80197Z" fill="white"/>
<path d="M76.5897 16.0088C73.4147 15.9452 70.2542 16.1896 67.1604 16.7882C49.262 19.688 33.6474 30.7001 26.1057 47.4072C19.3606 61.9861 19.0669 79.1181 25.8917 93.7235C38.2666 121.897 75.9227 135.2 102.505 118.653C120.217 108.783 131.103 89.417 130.466 69.1449C130.068 50.9746 119.394 32.9367 104.045 23.3859C95.7598 19.136 86.1149 16.1996 76.5897 16.0088ZM55.7395 48.4205C55.8191 62.3076 55.6089 76.2206 55.9807 90.1344C70.6393 76.6463 84.6585 62.4635 98.9454 48.5764C105.053 48.5764 111.163 48.5529 117.271 48.5529C102.002 64.1959 86.4638 79.5971 71.1943 95.2667C67.5828 98.7784 63.335 103.302 58.3691 104.686C51.1194 105.59 43.3932 100.827 43.2604 92.9519C42.7559 78.4795 42.7559 63.2631 43.2604 48.7907C47.4031 48.4714 51.5968 48.4737 55.7395 48.4205Z" fill="white"/>
<path d="M159.332 48.5254C163.661 48.552 168.016 48.552 172.345 48.552C172.371 62.4126 172.238 76.2731 172.504 90.1337C187.03 76.5392 201.157 62.4924 215.338 48.5254C221.446 48.5254 227.554 48.552 233.661 48.5786C216.055 66.1371 198.821 84.3075 180.869 101.467C173.487 108.677 160.023 103.436 159.598 93.1399C158.854 78.3216 159.571 63.3969 159.332 48.5254Z" fill="white"/>
<path d="M249.437 48.5783C264.281 48.3655 279.126 48.6581 293.944 48.5517C293.944 52.9945 293.944 57.4107 293.944 61.8536C278.276 62.0398 262.555 61.5609 246.888 61.96C242.187 61.5609 240.435 67.9724 244.657 69.9677C255.704 71.4575 267.203 69.7549 278.329 70.6594C286.774 71.1649 293.997 79.3322 293.678 87.7922C293.678 97.1036 285.659 104.739 276.497 104.872C260.75 105.51 244.922 104.872 229.175 105.085C229.175 100.668 229.148 96.2256 229.148 91.7828C244.79 91.57 260.484 92.1021 276.125 91.6498C280.932 91.9956 282.897 85.0254 277.719 83.7751C266.14 81.8596 253.845 84.3338 242.214 82.6045C230.609 80.0771 225.563 64.5139 233.158 55.3888C237.089 49.5892 242.957 48.7911 249.437 48.5783Z" fill="white"/>
<path d="M330.589 48.374C325.032 48.374 319.477 48.5536 314.099 48.8728C305.787 49.0059 298.908 55.9461 298.244 64.0869C297.606 72.5735 297.526 81.3792 298.376 89.8658C299.173 97.235 305.866 103.967 313.274 104.659C323.95 105.51 334.84 105.326 345.542 104.873C353.721 104.66 361.98 98.5672 362.405 89.9476C363.122 81.4876 363.068 72.7099 362.537 64.2233C362.192 56.2954 354.916 49.4031 347.082 48.9508C341.705 48.5517 336.146 48.374 330.589 48.374ZM331.915 61.7058C337.177 61.709 342.434 61.8415 347.639 62.2007C348.966 63.4511 349.629 64.888 349.576 66.5108C350.293 74.9974 350.001 83.5361 348.514 91.9429C336.856 90.6659 322.278 93.9377 311.497 90.0801C310.594 81.833 310.432 73.0543 311.388 64.7805C312.636 62.7853 314.23 61.8268 316.169 61.9864C321.387 61.8268 326.654 61.7025 331.915 61.7058Z" fill="white"/>
<path d="M417.984 48.5519C417.984 52.9947 417.958 57.4109 417.958 61.8537C406.194 62.173 394.297 61.2153 382.586 62.1996C379.638 63.1041 379.93 67.9992 379.08 70.4468C391.508 70.5266 403.936 70.5 416.364 70.5C416.391 74.7034 416.391 78.9068 416.391 83.1368C404.175 83.1368 391.96 83.1368 379.771 83.1368C379.744 90.4528 379.744 97.7688 379.718 105.111C375.389 105.085 371.061 105.085 366.705 105.085C366.891 92.1554 366.413 79.226 366.838 66.3232C366.732 58.1824 372.601 49.8554 381.045 49.1105C393.234 47.7804 405.716 48.8711 417.984 48.5519Z" fill="white"/>
<path d="M421.969 48.5519C440.637 48.5253 459.332 48.5519 478.001 48.5519V61.1887C470.831 61.1887 463.661 61.1887 456.491 61.1887C456.491 75.8207 456.491 90.4528 456.491 105.085C452.162 105.085 447.834 105.085 443.505 105.111C443.452 90.4794 443.479 75.8207 443.479 61.1887C436.309 61.1887 429.139 61.1887 421.969 61.1621C421.969 56.9587 421.969 52.7553 421.969 48.5519Z" fill="white"/>
</g>
<defs>
<clipPath id="clip0_1520_1917">
<rect width="478" height="141" fill="white"/>
</clipPath>
</defs>
</svg>
